<svg width="30" height="20" viewBox="0 0 30 20" fill="none" xmlns="http://www.w3.org/2000/svg">
    <rect x="0.7" y="0.7" width="28.6" height="18.6" rx="3.3" fill="white" stroke="white" stroke-width="1.4"></rect>
    <path d="M13.0081 7.02393L11.9917 12.9887H13.6173L14.6346 7.02393H13.0081Z" fill="#006c81"></path>
    <path d="M10.6286 7.03055L9.03645 11.0984L8.8667 10.4842C8.5527 9.7441 7.66128 8.68126 6.61475 8.01144L8.07061 12.9857L9.79073 12.9828L12.3508 7.0293L10.6286 7.03055Z" fill="#006c81"></path>
    <path d="M8.24957 7.45749C8.15508 7.09415 7.88121 6.98586 7.54129 6.9729H5.02091L5 7.09164C6.96137 7.56746 8.25919 8.71392 8.79772 10.0924L8.24957 7.45749Z" fill="#006c81"></path>
    <path d="M17.9293 8.16736C18.4611 8.159 18.8466 8.27524 19.146 8.39565L19.2927 8.46464L19.5126 7.17184C19.1907 7.051 18.686 6.92139 18.0564 6.92139C16.45 6.92139 15.3177 7.73043 15.3089 8.88986C15.2985 9.74657 16.1155 10.2249 16.7326 10.5105C17.3661 10.8031 17.5785 10.9892 17.5755 11.2505C17.5705 11.6498 17.0704 11.833 16.6034 11.833C15.9524 11.833 15.6066 11.7431 15.0727 11.5206L14.8632 11.4253L14.6345 12.7603C15.015 12.9272 15.717 13.0706 16.4458 13.0781C18.1546 13.0781 19.2651 12.2787 19.2768 11.0398C19.2839 10.362 18.8504 9.84483 17.9109 9.42045C17.3422 9.14366 16.9943 8.95969 16.9977 8.68039C16.9977 8.43245 17.2929 8.16736 17.9293 8.16736Z" fill="#006c81"></path>
    <path d="M23.6846 7.03052H22.4285C22.0384 7.03052 21.7483 7.13672 21.5768 7.52556L19.1631 12.992H20.8702C20.8702 12.992 21.1487 12.2569 21.2118 12.096C21.3987 12.096 23.0574 12.0985 23.2936 12.0985C23.3421 12.3067 23.4918 12.992 23.4918 12.992H24.9999L23.6846 7.03052ZM21.6797 10.8751C21.8135 10.5326 22.3274 9.20805 22.3274 9.20805C22.3186 9.22435 22.4599 8.8631 22.5439 8.63858L22.6535 9.15286C22.6535 9.15286 22.965 10.5769 23.0302 10.8751H21.6797Z" fill="#006c81"></path>
</svg>