<svg width="30" height="20" viewBox="0 0 30 20" fill="none" xmlns="http://www.w3.org/2000/svg">
    <rect x="0.7" y="0.7" width="28.6" height="18.6" rx="3.3" fill="white" stroke="white" stroke-width="1.4"></rect>
    <g clip-path="">
        <path d="M17.443 4.0083H17.4237H17.4036H17.3843H17.365H17.3458H17.3265H17.3073H17.288H17.2688H17.2505H17.2312H17.211H17.1918H17.1725H17.1537H17.1345H17.1152H17.096H17.0767H17.0574H17.0391H17.0199H17.0006H16.9814H16.9621H16.9429H16.9236H16.9043H16.8851H16.8654H16.8461H16.8269H16.8076H16.7883H16.7691H16.7498H16.7296H16.7104H16.6911H16.6719H16.6536H16.6343H16.6151H16.5967H16.5766H16.5573H16.538H16.5188H16.4995H16.4803H16.462H16.4427H16.4235H16.4042H16.3849H16.3657H16.3455H16.3262H16.307H16.2877H16.2685H16.2492H16.23H16.2107H16.191H16.1717H16.1515H16.1323H16.113H16.0938H16.0745H16.0553H16.036H16.0168H15.9975H15.9783H15.9581H15.9388H15.9195H15.9003H15.881H15.8646H15.8453H15.8261H15.8068H15.7876H15.7683H15.7495H15.7303H15.711H15.6913H15.6721H15.6528H15.6336H15.6143H15.595H15.5758H15.5565H15.5373H15.518H15.4988H15.4795H15.4603H15.441H15.4222H15.403H15.3832H15.364H15.3443H15.325H15.3058H15.2865H15.2687H15.2494H15.2301H15.2109H15.1912H15.1719H15.1527H15.1329H15.1137H15.0949H15.0761H15.0569H15.0376H15.0183H14.9991H14.9798H14.9606H14.9413H14.9221H14.9028H14.8836H14.8643H14.8451H14.8258H14.8061H14.7868H14.7676H14.7483H14.7286H14.7093H14.691H14.6722H14.653H14.6337H14.614H14.5947H14.5755H14.5562H14.537H14.5267H14.5182C14.5116 4.0083 14.5055 4.0083 14.4989 4.0083C14.4924 4.0083 14.4863 4.0083 14.4797 4.0083C14.4731 4.00971 14.467 4.00971 14.4604 4.01018L14.4407 4.01065C14.4346 4.01065 14.428 4.01112 14.4215 4.01159C14.4149 4.01159 14.4088 4.01253 14.4022 4.01253C14.3961 4.013 14.3895 4.01347 14.3829 4.01394C14.3764 4.01441 14.3703 4.01441 14.3637 4.01441L14.344 4.01628C14.3379 4.01675 14.3313 4.01722 14.3247 4.01769C14.3181 4.01816 14.3116 4.0191 14.3055 4.02004L14.2862 4.02192L14.267 4.02427C14.2604 4.02521 14.2543 4.02615 14.2477 4.02709C14.2411 4.02802 14.235 4.02896 14.2284 4.02943C14.2219 4.03037 14.2158 4.03131 14.2092 4.03272L14.1899 4.03648L14.1707 4.03977C14.1641 4.04117 14.158 4.04211 14.151 4.04352C14.1449 4.04493 14.1383 4.04587 14.1317 4.04728C14.1251 4.04822 14.119 4.04963 14.1124 4.05104L14.0932 4.05526C14.0866 4.05667 14.0805 4.05808 14.0739 4.05949C14.0674 4.0609 14.0613 4.06278 14.0547 4.06419C14.0481 4.06559 14.042 4.067 14.0354 4.06888C14.0289 4.07029 14.0227 4.07217 14.0162 4.07358L13.9969 4.07921C13.9903 4.08109 13.9842 4.0825 13.9777 4.08438C13.9711 4.08626 13.965 4.08814 13.9584 4.09002C13.9518 4.09189 13.9457 4.09377 13.9392 4.09612C13.9331 4.09753 13.9265 4.09988 13.9199 4.10176L13.9002 4.10833C13.8936 4.11021 13.8875 4.11256 13.8809 4.1149C13.8743 4.11725 13.8682 4.11913 13.8612 4.12195C13.8551 4.1243 13.8485 4.12618 13.8419 4.12899C13.8354 4.13087 13.8293 4.13369 13.8227 4.13604C13.8166 4.13792 13.8095 4.1412 13.8034 4.14355C13.7964 4.1459 13.7903 4.14872 13.7837 4.15107L13.7645 4.15905C13.7579 4.16187 13.7518 4.16421 13.7452 4.16703C13.7391 4.16985 13.7325 4.17267 13.7259 4.17549C13.7198 4.1783 13.7133 4.18112 13.7067 4.18394C13.7001 4.18676 13.694 4.19004 13.6874 4.19286C13.6809 4.19568 13.6743 4.1985 13.6677 4.20225C13.6611 4.20507 13.655 4.20836 13.6485 4.21165L13.6292 4.22104L13.61 4.23043C13.6034 4.23372 13.5968 4.23701 13.5907 4.24029C13.5841 4.24358 13.578 4.24687 13.571 4.25016C13.5649 4.25391 13.5583 4.25767 13.5517 4.26096C13.5451 4.26424 13.539 4.268 13.5325 4.27082C13.5264 4.27458 13.5198 4.27833 13.5132 4.28209C13.5066 4.28585 13.5001 4.2896 13.4935 4.29336C13.4869 4.29806 13.4808 4.30181 13.4742 4.30557C13.4677 4.30933 13.4616 4.31355 13.455 4.31778C13.4489 4.32154 13.4423 4.32623 13.4357 4.32999C13.4291 4.33375 13.4226 4.33844 13.4165 4.3422C13.4099 4.34643 13.4038 4.35112 13.3972 4.35535C13.3906 4.35958 13.3845 4.36427 13.3775 4.3685C13.3714 4.37273 13.3648 4.37836 13.3582 4.38212C13.3521 4.38682 13.3456 4.39198 13.339 4.39621C13.3324 4.4009 13.3263 4.40607 13.3197 4.41077C13.3132 4.41546 13.307 4.42063 13.3005 4.42532C13.2934 4.43143 13.2873 4.43613 13.2807 4.44176C13.2742 4.44646 13.2681 4.45162 13.2615 4.45726C13.2549 4.46289 13.2488 4.46712 13.2422 4.47323C13.2361 4.47839 13.2296 4.48403 13.223 4.48966C13.2164 4.4953 13.2103 4.50046 13.2037 4.50657C13.1972 4.51267 13.1906 4.51784 13.1845 4.52394C13.1779 4.52958 13.1718 4.53569 13.1648 4.54179C13.1586 4.5479 13.1521 4.55353 13.1455 4.55964C13.1389 4.56621 13.1328 4.57232 13.1262 4.57889C13.1197 4.585 13.1136 4.5911 13.107 4.59815C13.1004 4.60425 13.0943 4.61129 13.0877 4.61787C13.0812 4.62444 13.0751 4.63149 13.0685 4.63806C13.0619 4.64511 13.0553 4.65168 13.0492 4.65873C13.0427 4.66577 13.0365 4.67281 13.03 4.67986C13.0234 4.68737 13.0173 4.69442 13.0107 4.70193C13.0041 4.70945 12.998 4.71696 12.991 4.72447C12.9844 4.73199 12.9783 4.73997 12.9717 4.74795C12.9652 4.75594 12.9586 4.76392 12.952 4.77191C12.9459 4.78036 12.9393 4.78834 12.9328 4.79726C12.9262 4.80572 12.9201 4.81464 12.9135 4.82309C12.9069 4.83202 12.9004 4.84047 12.8942 4.84939C12.8877 4.85878 12.8816 4.86818 12.875 4.8771C12.8684 4.88696 12.8618 4.89635 12.8557 4.90622C12.8492 4.91608 12.8431 4.92594 12.8365 4.9358C12.8299 4.94613 12.8233 4.95647 12.8172 4.9668C12.8107 4.97713 12.8046 4.9884 12.798 4.9992C12.7914 5.01047 12.7853 5.02174 12.7787 5.03301C12.7721 5.04476 12.766 5.0565 12.7595 5.06824C12.7529 5.08045 12.7463 5.09266 12.7397 5.10534C12.7332 5.11802 12.7271 5.13117 12.7205 5.14431C12.7139 5.15793 12.7073 5.17155 12.7008 5.18564C12.6942 5.2002 12.6881 5.21476 12.6815 5.22979C12.6749 5.24528 12.6684 5.26078 12.6623 5.27722C12.6557 5.29412 12.6491 5.31103 12.643 5.32841C12.636 5.34719 12.6299 5.36598 12.6237 5.38429C12.6167 5.40495 12.6106 5.42562 12.6045 5.44628C12.5979 5.46976 12.5913 5.49324 12.5852 5.51719C12.5782 5.5449 12.5716 5.57261 12.566 5.60079C12.5387 5.73181 12.5247 5.86753 12.5247 6.00654V8.62139C12.5383 8.61012 12.5519 8.59838 12.566 8.58711C12.5721 8.58194 12.5787 8.57678 12.5852 8.57161C12.5918 8.56692 12.5979 8.56175 12.6045 8.55658C12.6111 8.55142 12.6172 8.54672 12.6237 8.54202C12.6303 8.53686 12.6364 8.53216 12.643 8.52747C12.6491 8.52277 12.6557 8.51807 12.6623 8.51385C12.6684 8.50962 12.6749 8.50492 12.6815 8.50023L12.7008 8.48708C12.7073 8.48285 12.7134 8.47816 12.7205 8.4744L12.7397 8.46172C12.7463 8.45749 12.7524 8.45327 12.7595 8.44951C12.7656 8.44528 12.7721 8.44153 12.7787 8.43777C12.7853 8.43354 12.7914 8.42979 12.798 8.42603C12.8046 8.42227 12.8107 8.41851 12.8172 8.41476C12.8238 8.411 12.8299 8.40677 12.8365 8.40349C12.8431 8.39973 12.8492 8.39597 12.8557 8.39269L12.875 8.38235L12.8942 8.37202C12.9008 8.36873 12.9069 8.36498 12.9135 8.36169C12.9201 8.3584 12.9262 8.35512 12.9328 8.35183L12.952 8.34197L12.9717 8.3321L12.991 8.32224C12.9976 8.31942 13.0037 8.31614 13.0107 8.31332L13.03 8.3044L13.0492 8.29547L13.0685 8.28702L13.0877 8.27857L13.107 8.27058L13.1262 8.2626L13.1455 8.25462L13.1648 8.2471L13.1845 8.23959C13.1906 8.23724 13.1972 8.23442 13.2037 8.23207L13.223 8.22456C13.2291 8.22221 13.2357 8.21986 13.2422 8.21752C13.2488 8.21517 13.2549 8.21282 13.2615 8.21047L13.2807 8.2039L13.3005 8.19685C13.3066 8.19497 13.3132 8.19263 13.3197 8.19028L13.339 8.1837C13.3451 8.18183 13.3517 8.17948 13.3582 8.1776L13.3775 8.17149L13.3972 8.16539L13.4165 8.15975L13.4357 8.15412L13.455 8.14848L13.4742 8.14285L13.4935 8.13721L13.5132 8.13205L13.5325 8.12688L13.5559 8.12124L13.5752 8.11702L13.5949 8.11232L13.6142 8.10763L13.6334 8.10293L13.6527 8.09823L13.6719 8.09401L13.6917 8.08978L13.7109 8.08555L13.7302 8.08133L13.7494 8.0771L13.7687 8.07334L13.7879 8.06959L13.8077 8.06583L13.8269 8.06207L13.8462 8.05832L13.8654 8.05503L13.8852 8.05174L13.9044 8.04845L13.9241 8.04517L13.9434 8.04188L13.9626 8.03859L13.9819 8.03624L14.0011 8.03296L14.0204 8.03014L14.0397 8.02779L14.0589 8.02497L14.0782 8.02262L14.0974 8.02028L14.1167 8.01746L14.1359 8.01511L14.1552 8.01276L14.1749 8.01041L14.1942 8.00853L14.2134 8.00619L14.2327 8.00431L14.2519 8.00196L14.2712 8.00055L14.2904 7.99867L14.3097 7.99679L14.3289 7.99492L14.3482 7.99351L14.3679 7.9921L14.3872 7.99069L14.4064 7.98975L14.4257 7.98834L14.4449 7.98693L14.4647 7.98599L14.4839 7.98458L14.5032 7.98365L14.5224 7.98271L14.5417 7.98177L14.5609 7.98083L14.5802 7.97989L14.5994 7.97895L14.6187 7.97848L14.6384 7.97754L14.6577 7.97707L14.6769 7.9766L14.6962 7.97613L14.7154 7.97566H14.7347L14.7544 7.97519L14.7737 7.97472L14.7929 7.97425H14.8122L14.8319 7.97378H14.8512H14.8704H14.8897H14.9089H14.9282H14.9474H14.9667H14.9859H15.0052H15.0245H15.0437L15.063 7.97425H15.0822L15.1015 7.97472L15.1212 7.97519H15.1404L15.1602 7.97566H15.1794L15.1987 7.97613L15.2184 7.9766L15.2377 7.97707L15.2569 7.97754L15.2762 7.97801L15.2954 7.97848L15.3147 7.97942L15.3339 7.98036H15.3438L15.3532 7.98083L15.3734 7.98177L15.3926 7.98224L15.4119 7.98318L15.4311 7.98458L15.4504 7.98552L15.4697 7.98646L15.4889 7.98787L15.5082 7.98928L15.5274 7.99069L15.5467 7.9921L15.5659 7.99351L15.5852 7.99539L15.6044 7.99726L15.6237 7.99867L15.6429 8.00055L15.6627 8.00196L15.6819 8.00384L15.7016 8.00572L15.7209 8.0076L15.7402 8.00947L15.7594 8.01182L15.7791 8.0137L15.7984 8.01605L15.8176 8.01793L15.8369 8.02028L15.8562 8.02262L15.8754 8.02497L15.8951 8.02732L15.9144 8.02967L15.9336 8.03202L15.9529 8.03436L15.9721 8.03718L15.9923 8.03953L16.0116 8.04235L16.0308 8.04517L16.0501 8.04798L16.0694 8.05127L16.0886 8.05362L16.1079 8.05644L16.1271 8.05925L16.1464 8.06254L16.1656 8.06536L16.1858 8.06818L16.2051 8.071L16.2239 8.07428L16.2431 8.07757L16.2619 8.08086L16.2821 8.08414L16.3014 8.08743L16.3206 8.09119L16.3399 8.09448L16.3591 8.09776L16.3784 8.10152L16.3976 8.10481L16.4169 8.10809L16.4361 8.11185L16.4554 8.11514L16.4746 8.1189L16.4939 8.12312L16.5132 8.12688L16.5324 8.13064L16.5517 8.13439L16.5719 8.13815L16.5911 8.14191L16.6104 8.14613L16.6296 8.14989L16.6489 8.15365L16.6681 8.15787L16.6883 8.16163L16.7076 8.16586L16.7268 8.17008L16.7461 8.17431L16.7653 8.17854L16.7846 8.18276L16.8038 8.18699L16.8231 8.19122L16.8424 8.19591L16.8625 8.20061L16.8818 8.20484L16.9011 8.20953L16.9203 8.21423V9.05955L16.9011 9.04969L16.8818 9.04029L16.8625 9.03043L16.8424 9.02104L16.8231 9.01165L16.8038 9.00178L16.7846 8.99286L16.7653 8.98347L16.7461 8.97455L16.7268 8.96562L16.7076 8.9567L16.6883 8.94778L16.6681 8.93932L16.6489 8.93087L16.6296 8.92242L16.6104 8.91396L16.5911 8.90551L16.5719 8.89753L16.5517 8.88954L16.5324 8.88156L16.5132 8.87358L16.4939 8.86559L16.4746 8.85808L16.4554 8.85057L16.4361 8.84305L16.4169 8.83601L16.3976 8.82896L16.3784 8.82192L16.3591 8.81534L16.3399 8.8083L16.3206 8.80173L16.3014 8.79562L16.2821 8.78905L16.2619 8.78294L16.2431 8.77683L16.2239 8.77073L16.2051 8.76463L16.1858 8.75852L16.1656 8.75288L16.1464 8.74725L16.1271 8.74161L16.1079 8.73598L16.0886 8.73081L16.0694 8.72565L16.0501 8.72048L16.0308 8.71578L16.0116 8.71109L15.9923 8.70639L15.9721 8.7017L15.9529 8.697L15.9336 8.69277L15.9144 8.68855L15.8951 8.68432L15.8754 8.68056L15.8562 8.67681L15.8369 8.67305L15.8176 8.66929L15.7984 8.666L15.7791 8.66225L15.7594 8.65896L15.7402 8.65567L15.7209 8.65192L15.7016 8.6491L15.6819 8.64628L15.6627 8.64346L15.6429 8.64065L15.6237 8.63783L15.6044 8.63548L15.5852 8.63266L15.5659 8.63078L15.5467 8.62843L15.5274 8.62656L15.5082 8.62421L15.4795 8.62891L15.4603 8.62703L15.441 8.62562L15.4222 8.62374L15.403 8.62233L15.3912 8.62139H15.3837L15.3645 8.61998L15.3447 8.61904L15.3255 8.6181L15.3062 8.61716L15.287 8.61623L15.2677 8.61576L15.2485 8.61529L15.2292 8.61482H15.21L15.1902 8.61435C15.1837 8.61435 15.1775 8.61435 15.171 8.61435H15.1517L15.132 8.61482H15.1127L15.093 8.61529C15.0869 8.61529 15.0803 8.61529 15.0738 8.61576C15.0672 8.61623 15.0611 8.61622 15.0545 8.61669L15.0353 8.61763L15.016 8.61857L14.9967 8.61998L14.9775 8.62139C14.9714 8.62186 14.9648 8.62233 14.9582 8.6228C14.9517 8.62327 14.9456 8.62374 14.939 8.62468L14.9197 8.62656L14.9005 8.62891L14.8812 8.63078L14.862 8.6336L14.8427 8.63689L14.8235 8.63971C14.8169 8.64065 14.8108 8.64158 14.8037 8.64299C14.7976 8.64393 14.7911 8.64487 14.7845 8.64581C14.7779 8.64722 14.7718 8.64816 14.7652 8.64957C14.7586 8.65098 14.7521 8.65145 14.746 8.65333C14.7389 8.65426 14.7333 8.65567 14.7262 8.65708C14.7197 8.65849 14.7136 8.65943 14.707 8.66084C14.7004 8.66272 14.6943 8.66413 14.6877 8.66553L14.6685 8.67023C14.6619 8.67164 14.6558 8.67352 14.6492 8.67493C14.6426 8.67634 14.6361 8.67822 14.63 8.67962C14.6234 8.6815 14.6173 8.68338 14.6102 8.68526L14.591 8.6909C14.5849 8.6923 14.5783 8.69465 14.5717 8.69653C14.5652 8.69888 14.5591 8.70029 14.5525 8.70264C14.5459 8.70451 14.5398 8.70686 14.5332 8.70874C14.5267 8.71062 14.5205 8.71297 14.514 8.71532C14.5074 8.71766 14.5013 8.72001 14.4947 8.72283C14.4881 8.72471 14.482 8.72706 14.4755 8.72987C14.4689 8.73269 14.4628 8.73504 14.4562 8.73739C14.4496 8.73974 14.4435 8.74255 14.4365 8.7449C14.4299 8.74772 14.4238 8.75054 14.4172 8.75335C14.4107 8.75617 14.4046 8.75899 14.398 8.76181C14.3919 8.76463 14.3853 8.76791 14.3787 8.77073C14.3721 8.77355 14.366 8.77683 14.3595 8.78012C14.3529 8.78341 14.3468 8.78623 14.3397 8.78952C14.3332 8.7928 14.3271 8.79609 14.3205 8.79938C14.3139 8.80266 14.3073 8.80595 14.3012 8.80924C14.2947 8.81253 14.2881 8.81628 14.282 8.82004C14.2754 8.8238 14.2693 8.82755 14.2627 8.83084C14.2562 8.8346 14.25 8.83883 14.2435 8.84258C14.2369 8.84634 14.2308 8.85057 14.2242 8.85479C14.2176 8.85902 14.2111 8.86325 14.205 8.867C14.1984 8.87123 14.1923 8.87593 14.1857 8.88015C14.1791 8.88485 14.173 8.88907 14.1665 8.89377C14.1599 8.89847 14.1533 8.90316 14.1467 8.90786C14.1402 8.91256 14.1341 8.91772 14.1275 8.92289C14.1209 8.92805 14.1143 8.93275 14.1082 8.93839C14.1016 8.94402 14.0951 8.94872 14.089 8.95435C14.0824 8.95999 14.0763 8.96515 14.0697 8.97126C14.0631 8.97689 14.057 8.983 14.0505 8.98863C14.0439 8.99474 14.0378 9.00084 14.0312 9.00742C14.0246 9.01353 14.0181 9.0201 14.0119 9.0262C14.0054 9.03325 13.9993 9.03982 13.9927 9.04687C13.9861 9.05391 13.98 9.06096 13.9734 9.068C13.9669 9.07505 13.9608 9.08256 13.9542 9.09054C13.9476 9.09806 13.9415 9.10604 13.9349 9.11402C13.9284 9.12248 13.9223 9.13046 13.9157 9.13891C13.9091 9.14784 13.9025 9.15676 13.896 9.16521C13.8894 9.17507 13.8833 9.184 13.8767 9.19386C13.8701 9.20372 13.8635 9.21358 13.857 9.22344C13.8504 9.23331 13.8443 9.24458 13.8377 9.25585C13.8311 9.26712 13.8246 9.27886 13.8185 9.2906C13.8119 9.30328 13.8053 9.31549 13.7992 9.32864C13.7922 9.34179 13.7861 9.35588 13.7795 9.36997C13.7729 9.38499 13.7663 9.39955 13.7602 9.41505C13.7532 9.43196 13.7471 9.44933 13.741 9.46671C13.7344 9.48596 13.7278 9.50569 13.7217 9.52541C13.7151 9.54842 13.7081 9.5719 13.7025 9.59585C13.695 9.62591 13.6888 9.65597 13.6832 9.68696C13.6748 9.73298 13.6682 9.77948 13.6635 9.82832C13.6583 9.8842 13.6555 9.94197 13.6555 10.0016C13.6555 10.0603 13.6583 10.119 13.6635 10.174C13.6682 10.2228 13.6743 10.2693 13.6832 10.3153C13.6888 10.3454 13.695 10.3768 13.7025 10.406C13.7081 10.4308 13.7147 10.4539 13.7217 10.4764C13.7278 10.4966 13.7344 10.5158 13.741 10.5351C13.7471 10.5525 13.7532 10.5698 13.7602 10.5863C13.7663 10.6018 13.7729 10.6159 13.7795 10.6323C13.7856 10.645 13.7922 10.66 13.7992 10.6736C13.8048 10.6854 13.8114 10.6985 13.8185 10.7112C13.8246 10.722 13.8311 10.7342 13.8377 10.745C13.8438 10.7553 13.8504 10.7671 13.857 10.7779C13.8635 10.7873 13.8697 10.7981 13.8767 10.807C13.8828 10.8169 13.8894 10.8253 13.896 10.8352C13.9025 10.8441 13.9086 10.8526 13.9157 10.8624C13.9218 10.8709 13.9284 10.8789 13.9349 10.8873C13.9415 10.8958 13.9476 10.9028 13.9542 10.9113C13.9608 10.9188 13.9669 10.9258 13.9734 10.9333C13.98 10.9418 13.9861 10.9479 13.9927 10.9545C13.9993 10.962 14.0054 10.9681 14.0119 10.9756C14.0181 10.9822 14.0246 10.9873 14.0312 10.9949C14.0378 11.0014 14.0439 11.0066 14.0505 11.0132C14.057 11.0188 14.0631 11.0249 14.0697 11.0305C14.0763 11.0362 14.0824 11.0413 14.089 11.047C14.0951 11.0536 14.1016 11.0568 14.1082 11.0634C14.1143 11.0681 14.1209 11.0733 14.1275 11.078C14.1336 11.0836 14.1402 11.0878 14.1467 11.0925C14.1533 11.0972 14.1594 11.1024 14.1665 11.1066C14.1726 11.1118 14.1791 11.1165 14.1857 11.1198C14.1923 11.124 14.1984 11.1287 14.205 11.1325C14.2111 11.1372 14.2176 11.1414 14.2242 11.1442C14.2308 11.147 14.2369 11.1526 14.2435 11.1559C14.25 11.1588 14.2562 11.1644 14.2627 11.1672C14.2693 11.17 14.2754 11.1752 14.282 11.1775C14.2881 11.1818 14.2947 11.1855 14.3012 11.1883C14.3073 11.1912 14.3139 11.1949 14.3205 11.1977C14.3271 11.202 14.3332 11.2057 14.3397 11.2076C14.3463 11.2114 14.3529 11.2142 14.3595 11.217C14.366 11.2212 14.3721 11.224 14.3787 11.2269C14.3848 11.2297 14.3914 11.2334 14.398 11.2362C14.4046 11.2391 14.4107 11.2419 14.4172 11.2447C14.4238 11.2485 14.4299 11.2513 14.4365 11.2541C14.4431 11.256 14.4492 11.2593 14.4562 11.2621C14.4623 11.2639 14.4689 11.2672 14.4755 11.2701C14.482 11.2719 14.4881 11.2748 14.4947 11.2776C14.5013 11.2794 14.5074 11.2823 14.514 11.2841C14.5205 11.286 14.5267 11.2888 14.5332 11.2917C14.5398 11.2935 14.5459 11.2954 14.5525 11.2978C14.5591 11.3006 14.5652 11.3025 14.5717 11.3043C14.5778 11.3067 14.5844 11.3086 14.591 11.3104C14.5976 11.3123 14.6041 11.3142 14.6102 11.3161C14.6168 11.318 14.6229 11.3198 14.63 11.3217C14.6361 11.3227 14.6426 11.3245 14.6492 11.3264C14.6558 11.3273 14.6619 11.3302 14.6685 11.3311L14.6877 11.3358C14.6943 11.3381 14.7004 11.3391 14.707 11.341C14.7136 11.3428 14.7197 11.3438 14.7262 11.3447C14.7328 11.3471 14.7389 11.348 14.746 11.349C14.7521 11.3508 14.7586 11.3518 14.7652 11.3527C14.7718 11.3546 14.7779 11.3555 14.7845 11.3565C14.7911 11.3574 14.7972 11.3593 14.8037 11.3602C14.8103 11.3612 14.8164 11.3621 14.8235 11.363C14.8296 11.364 14.8361 11.3649 14.8427 11.3659L14.862 11.3687L14.8812 11.3724L14.9005 11.3743L14.9197 11.3762L14.939 11.3785C14.9456 11.3795 14.9517 11.3804 14.9582 11.3804C14.9648 11.3814 14.9714 11.3814 14.9775 11.3823L14.9967 11.3832L15.016 11.3851L15.0353 11.3861L15.0545 11.3875C15.0611 11.3875 15.0672 11.3875 15.0738 11.3884C15.0803 11.3884 15.0864 11.3884 15.093 11.3884L15.1127 11.3893H15.132H15.1517H15.171C15.1775 11.3893 15.1837 11.3893 15.1902 11.3893H15.21H15.2292L15.2485 11.3884H15.2677L15.287 11.3875L15.3062 11.3861L15.3255 11.3851L15.3447 11.3842L15.3645 11.3832L15.3837 11.3823L15.3912 11.3814L15.403 11.3804L15.4222 11.3795L15.441 11.3771L15.4603 11.3753L15.4795 11.3734L15.4988 11.3715L15.518 11.3687L15.5373 11.3668L15.5565 11.3649L15.5758 11.3621L15.595 11.3593L15.6143 11.3565L15.6336 11.3536L15.6537 11.3499L15.673 11.3461L15.6923 11.3433L15.7115 11.3405L15.7308 11.3377L15.75 11.3339L15.7702 11.3302L15.7895 11.3273L15.8087 11.3231L15.828 11.3194L15.8472 11.3142L15.8665 11.3104L15.8857 11.3057L15.905 11.302L15.9242 11.2973L15.9435 11.2926L15.9628 11.2888L15.9829 11.2837L16.0022 11.279L16.0215 11.2738L16.0407 11.2682L16.06 11.2625L16.0792 11.2578L16.0985 11.2522L16.1177 11.2466L16.137 11.2405L16.1562 11.2344L16.1764 11.2287L16.1957 11.2231L16.2149 11.2165L16.2342 11.2099L16.2535 11.2038L16.2727 11.1968L16.292 11.1902L16.3112 11.1836L16.3305 11.1771L16.3497 11.1696L16.369 11.1625L16.3882 11.1555L16.4075 11.148L16.4267 11.1404L16.446 11.1329L16.4652 11.1249L16.4845 11.1174L16.5038 11.1094L16.523 11.101L16.5423 11.0935L16.5625 11.0846L16.5817 11.0756L16.601 11.0681L16.6202 11.0587L16.6395 11.0503L16.6587 11.0413L16.6789 11.0324L16.6982 11.023L16.7174 11.0136L16.7367 11.0042L16.7559 10.9949L16.7752 10.9855L16.7945 10.9761L16.8137 10.9662L16.833 10.9568L16.8532 10.9474L16.8724 10.9376L16.8917 10.9277L16.9109 10.9178V11.7627L16.8917 11.7679L16.8724 11.7725L16.8532 11.7772L16.833 11.7819L16.8137 11.7866L16.7945 11.7913L16.7752 11.796L16.7559 11.8003L16.7367 11.805L16.7174 11.8092L16.6916 11.8247L16.6724 11.8294L16.6531 11.8331L16.6338 11.8369L16.6146 11.8421L16.5953 11.8458L16.5751 11.85L16.5559 11.8538L16.5366 11.8585L16.5174 11.8622L16.4981 11.866L16.4789 11.8688L16.4596 11.8726L16.4404 11.8763L16.4211 11.8806L16.4019 11.8843L16.3826 11.8885L16.3633 11.8914L16.3441 11.8951L16.3248 11.8989L16.3056 11.9017L16.2863 11.9055L16.2671 11.9087L16.2469 11.9125L16.2276 11.9153L16.2084 11.9195L16.1891 11.9224L16.1699 11.9238L16.1506 11.9275L16.1313 11.9303L16.1121 11.9332L16.0928 11.9369L16.0736 11.9402L16.0534 11.943L16.0341 11.9458L16.0149 11.9491L15.9956 11.9566L15.9764 11.9595L15.9571 11.9623L15.9379 11.9651L15.9181 11.9679L15.8989 11.9698L15.8796 11.9726L15.8599 11.9754L15.8407 11.9773L15.8214 11.9801L15.8021 11.982L15.7829 11.9843L15.7636 11.9872L15.7439 11.989L15.7247 11.9909L15.7059 11.9933L15.6866 11.9952L15.6664 11.997L15.6472 11.9989L15.6279 12.0008L15.6087 12.0027L15.5899 12.0036L15.5706 12.0045L15.5514 12.0064L15.5321 12.0083L15.5129 12.0074L15.4936 12.0092L15.4743 12.0102L15.4551 12.0121L15.4358 12.013L15.4166 12.0149L15.3973 12.0158L15.3771 12.0168L15.3579 12.0177L15.3386 12.0186H15.3288H15.3194L15.3001 12.0196H15.2809L15.2616 12.0205L15.2424 12.0214L15.2226 12.0229H15.2034L15.1837 12.0238H15.1644L15.1451 12.0247H15.1254L15.1062 12.0257H15.0864H15.0672H15.0479H15.0287L15.0094 12.0266H14.9902H14.9709H14.9517H14.9324H14.9132H14.8939H14.8836H14.8643H14.8451H14.8258H14.8061L14.7868 12.0257H14.7676H14.7483L14.7286 12.0247H14.7093L14.6901 12.0238H14.6708L14.6516 12.0229L14.6323 12.0214L14.6126 12.0205H14.5933L14.5741 12.0196L14.5548 12.0186L14.5356 12.0177L14.5177 12.0205L14.4985 12.0196L14.4792 12.0186L14.46 12.0177L14.4402 12.0158L14.421 12.0149L14.4017 12.013L14.3825 12.0121L14.3632 12.0102L14.3435 12.0092L14.3242 12.0074L14.305 12.0055L14.2857 12.0045L14.2665 12.0027L14.2472 12.0008L14.228 11.998L14.2087 11.9961L14.1895 11.9942L14.1702 11.9923L14.1505 11.989L14.1312 11.9872L14.112 11.9843L14.0927 11.9825L14.0735 11.9792L14.0542 11.9764L14.035 11.9735L14.0157 11.9726L13.9965 11.9689L13.9772 11.966L13.9579 11.9632L13.9387 11.9595L13.9194 11.9566L13.8997 11.9529L13.8805 11.9496L13.8607 11.9458L13.8415 11.943L13.8222 11.9397L13.803 11.936L13.7832 11.9322L13.764 11.9285L13.7447 11.9247L13.7255 11.9209L13.7062 11.9163L13.687 11.9116L13.6672 11.9097L13.648 11.905L13.6287 11.9008L13.6095 11.8961L13.5902 11.8904L13.5705 11.8857L13.5513 11.8806L13.532 11.8759L13.5127 11.8698L13.493 11.8651L13.4738 11.859L13.4545 11.8533L13.4353 11.8477L13.416 11.8421L13.3967 11.8355L13.377 11.8308L13.3578 11.8251C13.3517 11.8223 13.3451 11.8205 13.3385 11.8186C13.3319 11.8158 13.3258 11.8139 13.3193 11.8115L13.3056 11.8017L13.2859 11.7951C13.2793 11.7923 13.2732 11.7904 13.2667 11.7876C13.2601 11.7857 13.254 11.7829 13.2474 11.7801L13.2282 11.7735C13.2216 11.7702 13.2155 11.7674 13.2089 11.7655L13.1896 11.7575L13.1699 11.7491L13.1507 11.7416L13.1314 11.7326L13.1122 11.7237L13.0929 11.7153L13.0736 11.7068L13.0544 11.6974L13.0351 11.6885L13.0159 11.6786C13.0093 11.6758 13.0032 11.6725 12.9962 11.6692L12.9769 11.6598L12.9572 11.65L12.9379 11.6406C12.9314 11.6368 12.9252 11.6331 12.9187 11.6307C12.9121 11.627 12.906 11.6232 12.8994 11.6209L12.8802 11.6105L12.8609 11.6007L12.8417 11.5922C12.8351 11.5885 12.829 11.5847 12.8224 11.5814C12.8158 11.5777 12.8097 11.573 12.8031 11.5711L12.7839 11.5598C12.7773 11.5556 12.7712 11.5509 12.7646 11.5481C12.7581 11.5434 12.7515 11.5396 12.7449 11.5363L12.7257 11.5237C12.7191 11.5199 12.713 11.5143 12.7059 11.5114L12.6867 11.4992C12.6801 11.4941 12.6735 11.4894 12.6674 11.4856C12.6608 11.4809 12.6543 11.4757 12.6482 11.472C12.6416 11.4673 12.6355 11.4626 12.6289 11.4584C12.6223 11.4541 12.6162 11.4485 12.6097 11.4438C12.6031 11.4391 12.597 11.434 12.5904 11.4293C12.5838 11.4236 12.5773 11.4194 12.5712 11.4142C12.5571 11.403 12.543 11.3907 12.5298 11.3795V15.9912H12.5712H12.5904H12.6097H12.6289H12.6482H12.6674H12.6867H12.7059H12.7257H12.7449H12.7646H12.7839H12.8031H12.8224H12.8417H12.8609H12.8802H12.8994H12.9187H12.9379H12.9572H12.9769H12.9962H13.0159H13.0351H13.0544H13.0736H13.0929H13.1122H13.1314H13.1507H13.1699H13.1896H13.2089H13.2282H13.2474H13.2667H13.2859H13.3056H13.3249H13.3441H13.3634H13.3827H13.4024H13.4216H13.4409H13.4601H13.4794H13.4987H13.5184H13.5376H13.5569H13.5761H13.5959H13.6151H13.6344H13.6536H13.6729H13.6926H13.7119H13.7311H13.7504H13.7696H13.7889H13.8086H13.8279H13.8471H13.8664H13.8861H13.9053H13.9251H13.9443H13.9636H13.9828H14.0021H14.0213H14.0406H14.0598H14.0791H14.0984H14.1176H14.1369H14.1561H14.1758H14.1951H14.2144H14.2336H14.2529H14.2721H14.2914H14.3106H14.3299H14.3491H14.3689H14.3881H14.4074H14.4266H14.4459H14.4656H14.4849H14.5041H14.5234H14.5426H14.5619H14.5811H14.6004H14.6196H14.6394H14.6586H14.6779H14.6971H14.7164H14.7356H14.7554H14.7746H14.7939H14.8131H14.8328H14.8521H14.8714H14.8906H14.9099H14.9291H14.9484H14.9676H14.9869H15.0061H15.0254H15.0446H15.0639H15.0832H15.1024H15.1221H15.1414H15.1611H15.1804H15.1996H15.2193H15.2386H15.2579H15.2771H15.2964H15.3156H15.3349H15.3541H15.3743H15.3936H15.4128H15.4321H15.4513H15.4706H15.4725C15.4781 15.9912 15.4837 15.9912 15.4898 15.9912H15.5091C15.5157 15.9912 15.5218 15.9912 15.5284 15.9902C15.5349 15.9902 15.541 15.9902 15.5476 15.9902C15.5542 15.9902 15.5603 15.9893 15.5669 15.9893L15.5861 15.9883L15.6054 15.9874C15.6119 15.9865 15.6181 15.9865 15.6246 15.9865C15.6312 15.9855 15.6373 15.9855 15.6439 15.9846L15.6636 15.9827C15.6697 15.9818 15.6763 15.9818 15.6829 15.9808C15.6899 15.9799 15.6955 15.9789 15.7026 15.978C15.7092 15.9771 15.7153 15.9771 15.7218 15.9761C15.7284 15.9752 15.7345 15.9743 15.7411 15.9733L15.7603 15.9705C15.7669 15.9696 15.773 15.9686 15.7801 15.9677C15.7871 15.9667 15.7923 15.9658 15.7993 15.9649C15.8064 15.9639 15.8115 15.963 15.8186 15.9611L15.8378 15.9578L15.8571 15.9541C15.8641 15.9522 15.8702 15.9508 15.8763 15.9498C15.8834 15.9489 15.8886 15.947 15.8961 15.9451L15.9153 15.9404L15.9346 15.9357C15.9416 15.9348 15.9473 15.9329 15.9538 15.931C15.9609 15.9292 15.9665 15.9282 15.9731 15.9264C15.9801 15.9245 15.9858 15.9226 15.9933 15.9207C15.9994 15.9184 16.005 15.9174 16.0125 15.9155L16.0318 15.9094L16.051 15.9038C16.0581 15.9019 16.0637 15.9001 16.0703 15.8972C16.0769 15.8954 16.082 15.8935 16.0896 15.8916C16.0961 15.8888 16.1022 15.8869 16.1088 15.885L16.1281 15.877L16.1473 15.87C16.1539 15.8681 16.16 15.8653 16.1666 15.8634C16.1731 15.8606 16.1793 15.8578 16.1868 15.855C16.1933 15.8531 16.1985 15.8503 16.206 15.8475C16.2117 15.8456 16.2178 15.8428 16.2253 15.8395L16.2445 15.8305L16.2638 15.823L16.283 15.8136C16.2896 15.8108 16.2957 15.808 16.3023 15.8042C16.3089 15.8014 16.315 15.7986 16.3215 15.7953C16.3281 15.7916 16.3342 15.7883 16.3408 15.7855C16.3474 15.7826 16.3535 15.7789 16.3601 15.7756C16.3666 15.7728 16.3727 15.769 16.3793 15.7657C16.3859 15.7629 16.392 15.7587 16.3986 15.7559L16.4178 15.746L16.4371 15.7362L16.4563 15.7263C16.4638 15.7221 16.469 15.7178 16.4756 15.716C16.4831 15.7117 16.4883 15.707 16.4948 15.7047C16.5023 15.7005 16.5085 15.6967 16.5141 15.6939C16.5216 15.6892 16.5268 15.6854 16.5333 15.6821C16.5409 15.6784 16.546 15.6737 16.5526 15.6704C16.5601 15.6657 16.5653 15.661 16.5728 15.6582C16.5794 15.654 16.5855 15.6493 16.592 15.646C16.5986 15.6427 16.6038 15.6371 16.6113 15.6324C16.6179 15.6286 16.624 15.6234 16.6306 15.6197C16.6381 15.615 16.6432 15.6103 16.6498 15.6061C16.6573 15.6014 16.6625 15.5967 16.6691 15.5924C16.6766 15.5878 16.6817 15.5826 16.6893 15.5779C16.6958 15.5732 16.701 15.5685 16.7085 15.5638C16.7151 15.5586 16.7203 15.5539 16.7278 15.5488C16.7343 15.5436 16.7395 15.5389 16.747 15.5333C16.7536 15.5272 16.7597 15.5234 16.7663 15.5168C16.7738 15.5112 16.779 15.507 16.7855 15.5013C16.793 15.4948 16.7982 15.4896 16.8048 15.484C16.8123 15.4774 16.8175 15.4732 16.824 15.4666C16.8316 15.461 16.8367 15.4558 16.8433 15.4492C16.8508 15.4426 16.856 15.4375 16.8635 15.4309C16.8701 15.4243 16.8752 15.4192 16.8827 15.4116C16.8893 15.4051 16.8954 15.3999 16.902 15.3924C16.9086 15.3858 16.9147 15.3797 16.9213 15.3731C16.9288 15.3656 16.9339 15.3595 16.9405 15.3529C16.948 15.3454 16.9532 15.3393 16.9598 15.3318C16.9663 15.3252 16.9724 15.3182 16.979 15.3107C16.9856 15.3032 16.9917 15.2961 16.9983 15.2886C17.0048 15.2802 17.0109 15.2731 17.0175 15.2656C17.0241 15.2571 17.0302 15.2492 17.0368 15.2407C17.0434 15.2327 17.0495 15.2252 17.056 15.2168C17.0626 15.2078 17.0687 15.2003 17.0753 15.1914C17.0819 15.1825 17.088 15.174 17.0945 15.1651C17.1011 15.1557 17.1072 15.1468 17.1138 15.1383C17.1204 15.1285 17.1265 15.1191 17.134 15.1097C17.1406 15.0998 17.1457 15.0904 17.1532 15.0806C17.1589 15.0707 17.165 15.0613 17.1725 15.0514C17.1791 15.0416 17.1852 15.0313 17.1918 15.0205C17.1983 15.0096 17.2044 14.9993 17.2101 14.9885C17.2176 14.9772 17.2237 14.9655 17.2293 14.9542C17.2368 14.943 17.2429 14.9308 17.2495 14.9185C17.2561 14.9073 17.2622 14.8932 17.2688 14.881C17.2753 14.8688 17.2815 14.8547 17.288 14.8415C17.2946 14.8284 17.3007 14.8133 17.3073 14.8002C17.3139 14.7847 17.32 14.7706 17.3265 14.7546C17.334 14.7387 17.3392 14.7232 17.3458 14.7058C17.3533 14.6884 17.3585 14.6711 17.365 14.6537C17.3726 14.6344 17.3787 14.6152 17.3843 14.5959C17.3918 14.5748 17.3979 14.5536 17.4036 14.5316C17.4111 14.5067 17.4172 14.4823 17.4228 14.4574C17.4313 14.4283 17.4364 14.3977 17.443 14.3681C17.4505 14.3287 17.4566 14.2893 17.4623 14.2484C17.4726 14.1639 17.4787 14.0793 17.4787 13.9924V4.0083H17.443Z" fill="#006c81"></path>
        <path d="M11.9268 4.00952H11.8982H11.8789H11.8596H11.8404H11.8211H11.8019H11.7822H11.7629H11.7436H11.7244H11.7051H11.6859H11.6666H11.6478H11.6291H11.6093H11.5901H11.5708H11.5516H11.5323H11.5131H11.4938H11.4746H11.4553H11.436H11.4168H11.3971H11.3778H11.3581H11.3388H11.3196H11.3003H11.2811H11.2618H11.244H11.2247H11.2055H11.1862H11.1665H11.1472H11.1275H11.1087H11.0895H11.0702H11.0505H11.0308H11.0115H10.9927H10.9735H10.9537H10.9345H10.9148H10.8955H10.8763H10.8584H10.8392H10.8194H10.8002H10.7809H10.7617H10.7419H10.7227H10.7034H10.6842H10.6649H10.6452H10.6259H10.6062H10.587H10.5677H10.5485H10.5292H10.5099H10.4902H10.471H10.4545H10.4353H10.416H10.3968H10.3775H10.3578H10.3385H10.3193H10.3H10.2803H10.262H10.2427H10.2235H10.2042H10.185H10.1652H10.146H10.1267H10.1075H10.0882H10.0694H10.0502H10.0309H10.0117H9.99243H9.9727H9.95345H9.93419H9.91494H9.89569H9.8769H9.85812H9.83886H9.81961H9.80035H9.78063H9.76137H9.74212H9.72286H9.70361H9.68436H9.66557H9.64632H9.62706H9.60781H9.58808H9.56883H9.5491H9.52985H9.5106H9.49087H9.47303H9.45377H9.43452H9.41526H9.39601H9.37675H9.3575H9.33778H9.31852H9.29927H9.28001H9.2617H9.24244H9.22272H9.20346H9.18421H9.16495H9.1457H9.12598H9.10672H9.08794H9.06915H9.0499H9.03064H9.01092H9.00059H8.99166C8.98509 4.00952 8.97898 4.00952 8.97241 4.00952C8.96583 4.00952 8.95973 4.00952 8.95316 4.00952C8.94658 4.00952 8.94048 4.01093 8.9339 4.0114L8.91465 4.01187C8.90807 4.01187 8.90197 4.01234 8.89539 4.01281C8.88882 4.01281 8.88271 4.01375 8.87614 4.01375C8.86956 4.01375 8.86346 4.01375 8.85688 4.01516C8.85031 4.01563 8.8442 4.01563 8.83716 4.01563L8.8179 4.01797C8.81133 4.01844 8.80475 4.01891 8.79818 4.01938C8.79208 4.01938 8.7855 4.02079 8.77893 4.02126L8.75967 4.02408L8.74042 4.02549C8.73384 4.0269 8.72774 4.02737 8.72116 4.02925C8.71506 4.02925 8.70801 4.03112 8.70191 4.03159C8.69533 4.03159 8.68923 4.03347 8.68265 4.03394L8.6634 4.0377C8.65682 4.0377 8.65025 4.04005 8.64367 4.04146C8.6371 4.04286 8.631 4.0438 8.62442 4.04521C8.61832 4.04615 8.61174 4.04615 8.60517 4.04897C8.59859 4.04991 8.59202 4.05179 8.58544 4.05226L8.56619 4.05601C8.55961 4.05836 8.55351 4.05977 8.54646 4.06165C8.54036 4.06212 8.53378 4.06494 8.52721 4.06588C8.52063 4.06728 8.51453 4.06822 8.50795 4.07057C8.50138 4.07198 8.4948 4.07433 8.4887 4.07574L8.46898 4.08043C8.4624 4.08278 8.4563 4.08419 8.44972 4.08607C8.44315 4.08795 8.43704 4.0903 8.43047 4.09217C8.42436 4.09405 8.41779 4.09546 8.41121 4.09828C8.40464 4.10016 8.39853 4.10251 8.39196 4.10439L8.3727 4.11096L8.35298 4.11706C8.3464 4.11988 8.3403 4.12082 8.33372 4.12458C8.32762 4.12646 8.32104 4.12881 8.31447 4.13068C8.3079 4.13303 8.30179 4.13585 8.29522 4.1382L8.28019 4.14524L8.26046 4.15276L8.24121 4.16121C8.23463 4.16356 8.22853 4.16638 8.22195 4.16919C8.21585 4.17107 8.20928 4.17483 8.2027 4.17718C8.19613 4.18093 8.18955 4.18328 8.18298 4.18563C8.1764 4.18939 8.1703 4.19173 8.16372 4.19502C8.15715 4.19831 8.15104 4.2016 8.14447 4.20441C8.13836 4.2077 8.13179 4.21005 8.12521 4.21381L8.10596 4.22367C8.09938 4.22743 8.09281 4.22977 8.0867 4.234C8.08013 4.23776 8.07402 4.24104 8.06698 4.24433C8.06087 4.24762 8.0543 4.25044 8.04773 4.25419C8.04115 4.25795 8.03458 4.26171 8.02847 4.26547C8.0219 4.26875 8.01579 4.27204 8.00922 4.27486C8.00264 4.27861 7.99654 4.28378 7.98996 4.28707C7.98339 4.29082 7.97681 4.29458 7.97024 4.29834C7.96366 4.3021 7.95756 4.30632 7.95098 4.30914C7.94441 4.3129 7.9383 4.31806 7.93173 4.32135C7.92562 4.32511 7.91905 4.33027 7.91247 4.33356C7.9059 4.33685 7.89979 4.34248 7.89322 4.34577C7.88665 4.35047 7.88007 4.35516 7.87397 4.35939C7.86739 4.36409 7.86129 4.36784 7.85424 4.37348C7.84814 4.3777 7.84156 4.38146 7.83499 4.38616L7.81573 4.40119C7.80916 4.40588 7.80305 4.41058 7.79648 4.41574C7.7899 4.42091 7.78333 4.42561 7.77675 4.42983C7.77018 4.43547 7.76407 4.44016 7.7575 4.44486C7.75092 4.45097 7.74482 4.45472 7.73824 4.46083C7.73214 4.46646 7.72557 4.4721 7.71899 4.47679C7.71242 4.4829 7.70631 4.4876 7.69974 4.49417C7.69316 4.49887 7.68706 4.50497 7.68001 4.50967C7.67391 4.51577 7.66733 4.52188 7.66076 4.52704C7.65418 4.53362 7.64808 4.53925 7.64103 4.54536C7.63493 4.55146 7.62835 4.55616 7.62178 4.56227C7.6152 4.56978 7.6091 4.57448 7.60252 4.58199C7.59595 4.58809 7.58984 4.5942 7.58327 4.60171C7.5767 4.60829 7.57059 4.61439 7.56402 4.62097C7.55744 4.62707 7.55087 4.63459 7.54476 4.64069C7.53819 4.64821 7.53161 4.65478 7.52504 4.66136C7.51846 4.66934 7.51236 4.67638 7.50578 4.68296C7.49921 4.69094 7.4931 4.69799 7.48606 4.7055C7.47948 4.71161 7.47338 4.72006 7.4668 4.72804C7.46023 4.73556 7.45412 4.74213 7.44755 4.75058C7.44097 4.75904 7.4344 4.76655 7.42829 4.77547C7.42172 4.78252 7.41515 4.79097 7.40904 4.79989C7.40247 4.80882 7.39636 4.8168 7.38932 4.82525C7.38321 4.83465 7.37664 4.8431 7.37006 4.85202C7.36349 4.86141 7.35738 4.87081 7.35081 4.87926C7.34423 4.88959 7.33766 4.89898 7.33155 4.90838C7.32451 4.91777 7.3184 4.9281 7.31183 4.93749C7.30525 4.94829 7.29915 4.95863 7.29257 4.96849C7.286 4.97929 7.27989 4.99056 7.27332 5.00136C7.26674 5.01263 7.26017 5.02343 7.25407 5.03471C7.24749 5.04692 7.24092 5.05772 7.23481 5.06993C7.22824 5.08214 7.22166 5.09435 7.21556 5.10656C7.20898 5.12018 7.20241 5.13286 7.19583 5.14647C7.18926 5.15915 7.18315 5.17324 7.17658 5.18733C7.17 5.20189 7.1639 5.21692 7.15732 5.23007C7.15075 5.24744 7.14417 5.262 7.13807 5.27891C7.13102 5.29488 7.12539 5.31272 7.11881 5.32916C7.11224 5.34794 7.10566 5.36673 7.09909 5.38551C7.09252 5.40618 7.08641 5.42731 7.07984 5.44844C7.07326 5.47192 7.06622 5.4954 7.06058 5.51935C7.05354 5.54706 7.04696 5.57383 7.04133 5.60248C7.01409 5.73397 7 5.86969 7 6.00917V10.9411C7.01409 10.9486 7.02771 10.9543 7.04133 10.9613L7.06058 10.9707L7.07984 10.9801L7.09909 10.99L7.11881 10.9989L7.13807 11.0083L7.15732 11.0177L7.17658 11.0261L7.19583 11.036L7.21556 11.0435L7.23481 11.0529L7.25407 11.0614L7.27332 11.0703L7.29257 11.0792L7.31183 11.0872L7.33155 11.0952L7.35081 11.1036L7.37006 11.1121L7.38932 11.1201L7.40904 11.128L7.42829 11.136L7.44755 11.1435L7.4668 11.1515L7.48606 11.1586L7.50578 11.1666L7.52504 11.1736L7.54476 11.1802L7.56402 11.1882L7.58327 11.1952L7.60252 11.2018L7.62178 11.2093L7.64103 11.2159L7.66076 11.2215L7.68001 11.229L7.69974 11.2356L7.71899 11.2422L7.73824 11.2478L7.7575 11.2534L7.77675 11.2591L7.79648 11.2656L7.81573 11.2708L7.83499 11.2769L7.85424 11.2825L7.87397 11.2877L7.89322 11.2924L7.91247 11.2976L7.93173 11.3023L7.95098 11.3084L7.97024 11.3131L7.98996 11.3182L8.00922 11.3229L8.02847 11.3276L8.04773 11.3319L8.06698 11.3361L8.0867 11.3398L8.10596 11.3436L8.12521 11.3483L8.14447 11.3521L8.16372 11.3567L8.18298 11.3596L8.2027 11.3633L8.22195 11.3661L8.24121 11.3699L8.26046 11.3732L8.28019 11.3765L8.29944 11.3793L8.3187 11.3812L8.33795 11.384L8.35721 11.3873L8.37693 11.3896L8.39618 11.3915L8.41544 11.3938L8.43469 11.3962L8.45395 11.3981L8.4732 11.4L8.49293 11.4009L8.51218 11.4028L8.53144 11.4037L8.55069 11.4056H8.57041L8.58967 11.4065L8.60939 11.4079L8.62865 11.4089L8.6479 11.4093L8.66763 11.4098H8.68688L8.70613 11.4103H8.72539H8.73713H8.74464C8.75122 11.4103 8.75732 11.4103 8.7639 11.4103L8.78315 11.4098C8.78926 11.4098 8.7963 11.4098 8.80241 11.4093C8.80898 11.4093 8.81556 11.4089 8.82213 11.4084C8.82871 11.4079 8.83481 11.4079 8.84139 11.4075C8.84796 11.4065 8.85407 11.4065 8.86111 11.4056C8.86721 11.4056 8.87379 11.4056 8.88036 11.4046C8.88694 11.4037 8.89304 11.4037 8.89962 11.4028L8.91887 11.4009C8.92545 11.4 8.93155 11.399 8.93813 11.3981C8.9447 11.3981 8.95081 11.3971 8.95738 11.3953L8.97664 11.3924C8.98321 11.3915 8.98932 11.3901 8.99589 11.3892C9.00247 11.3877 9.00857 11.3859 9.01515 11.3849C9.02172 11.384 9.02829 11.3821 9.03487 11.3812C9.04144 11.3802 9.04755 11.3784 9.05412 11.3774C9.0607 11.3755 9.0668 11.3741 9.07338 11.3727C9.07948 11.3708 9.08606 11.3694 9.09263 11.3675C9.09921 11.3652 9.10531 11.3643 9.11189 11.3624C9.11846 11.3605 9.12504 11.3586 9.13114 11.3567C9.13772 11.3544 9.14382 11.3525 9.15087 11.3502C9.15697 11.3483 9.16355 11.3455 9.17012 11.3436C9.17669 11.3408 9.1828 11.3389 9.18937 11.337C9.19595 11.3342 9.20205 11.3319 9.20863 11.3295C9.2152 11.3272 9.22131 11.3248 9.22788 11.322C9.23446 11.3192 9.24103 11.3164 9.24761 11.3131C9.25418 11.3103 9.26029 11.3074 9.26686 11.3042C9.27344 11.3013 9.27954 11.2976 9.28612 11.2948C9.29222 11.2919 9.2988 11.2887 9.30537 11.2854C9.31195 11.2816 9.31852 11.2788 9.32463 11.2755C9.3312 11.2717 9.33778 11.2685 9.34388 11.2647C9.35046 11.2619 9.35656 11.2581 9.3636 11.2548C9.36971 11.2511 9.37628 11.2473 9.38286 11.244C9.38943 11.2403 9.39554 11.2351 9.40211 11.2323C9.40869 11.2276 9.41479 11.2229 9.42137 11.2196C9.42794 11.2149 9.43405 11.2102 9.44062 11.206C9.4472 11.2013 9.4533 11.1961 9.45988 11.1919C9.46645 11.1867 9.47256 11.182 9.47913 11.1769C9.48571 11.1717 9.49181 11.167 9.49839 11.1614C9.50543 11.1548 9.51153 11.1496 9.51811 11.144C9.52468 11.1374 9.53079 11.1323 9.53736 11.1257C9.54394 11.1186 9.55004 11.113 9.55662 11.1055C9.56319 11.0985 9.56977 11.0919 9.57634 11.0853C9.58292 11.0773 9.58902 11.0707 9.5956 11.0632C9.60217 11.0543 9.60875 11.0477 9.61532 11.0383C9.6219 11.029 9.628 11.0214 9.63458 11.0116C9.64115 11.0031 9.64773 10.9942 9.65383 10.9839C9.6604 10.974 9.66698 10.9637 9.67308 10.9538C9.67966 10.9435 9.68623 10.9317 9.69234 10.9209C9.69891 10.9092 9.70549 10.8951 9.71159 10.8834C9.71817 10.8707 9.72474 10.8547 9.73085 10.8411C9.73789 10.8167 9.744 10.8012 9.7501 10.7838C9.75715 10.7646 9.76372 10.7453 9.76936 10.7251C9.77687 10.6993 9.78345 10.6749 9.78861 10.6481C9.79753 10.6058 9.80411 10.5617 9.80834 10.518C9.81115 10.4833 9.81256 10.4476 9.81256 10.4105V8.09288H9.82712H9.84637H9.86563H9.8769H9.89662H9.91588H9.93513H9.95439H9.97364H9.99337H10.0126H10.0319H10.0511H10.0704H10.0896H10.1089H10.1281H10.1474H10.1667H10.1864H10.2056H10.2249H10.2441H10.2634H10.2827H10.3024H10.3216H10.3409H10.3601H10.3799H10.3991H10.4184H10.4376H10.4569H10.4766H10.4959H10.5156H10.5348H10.5541H10.5733H10.5926H10.6119H10.6316H10.6508H10.6706H10.6898H10.7091H10.7283H10.7476H10.7673H10.7866H10.8058H10.8251H10.8448H10.864H10.8833H10.9026H10.9218H10.9411H10.9608H10.98H10.9993H11.0185H11.0378H11.0575H11.0768H11.096H11.1153H11.1345H11.1538H11.1735H11.1928H11.2125H11.2318H11.251H11.2703H11.2895H11.3088H11.328H11.3473H11.3665H11.3863H11.4055H11.4252H11.4445H11.4638H11.483H11.5023H11.5215H11.5309V10.4109C11.5309 10.4786 11.5281 10.5448 11.5215 10.6101C11.5168 10.6565 11.5102 10.7026 11.5023 10.7476C11.4966 10.7772 11.4905 10.8082 11.483 10.8373C11.4774 10.8622 11.4708 10.8862 11.4638 10.9087C11.4576 10.9289 11.4515 10.9486 11.4445 10.9684C11.4384 10.9857 11.4323 11.0022 11.4252 11.0196C11.4191 11.0351 11.4126 11.0501 11.4055 11.0661C11.3994 11.0801 11.3928 11.0952 11.3863 11.1083C11.3802 11.1205 11.3736 11.1346 11.3665 11.1468C11.3604 11.1581 11.3539 11.1712 11.3473 11.182C11.3407 11.1928 11.3346 11.2041 11.328 11.214C11.3215 11.2243 11.3154 11.2351 11.3088 11.245C11.3027 11.2544 11.2961 11.2642 11.2895 11.2736C11.2829 11.2835 11.2768 11.2929 11.2703 11.3023C11.2637 11.3117 11.2576 11.3196 11.251 11.329C11.2444 11.3375 11.2383 11.3445 11.2318 11.353C11.2257 11.361 11.2191 11.3685 11.2125 11.376C11.2064 11.384 11.1998 11.3915 11.1932 11.399C11.1871 11.4065 11.1806 11.4136 11.174 11.4201C11.1674 11.4277 11.1613 11.4338 11.1543 11.4403C11.1482 11.4469 11.1416 11.453 11.135 11.4596C11.1289 11.4662 11.1228 11.4723 11.1158 11.4788C11.1097 11.4854 11.1031 11.4906 11.0965 11.4967C11.0899 11.5028 11.0838 11.508 11.0773 11.5145C11.0707 11.5202 11.0646 11.5253 11.058 11.531C11.0514 11.5361 11.0453 11.5408 11.0383 11.5465C11.0322 11.5521 11.0261 11.5563 11.019 11.5615C11.0129 11.5676 11.0063 11.5714 10.9998 11.5761C10.9937 11.5822 10.9871 11.5859 10.9805 11.5901C10.9739 11.5953 10.9678 11.6 10.9613 11.6038C10.9547 11.6085 10.9486 11.6136 10.9415 11.6169C10.9354 11.6221 10.9289 11.6258 10.9223 11.6291C10.9157 11.6338 10.9096 11.6385 10.903 11.6418C10.8969 11.6465 10.8903 11.6507 10.8838 11.6535C10.8772 11.6573 10.8711 11.662 10.8645 11.6643C10.8579 11.669 10.8518 11.6733 10.8453 11.6756C10.8387 11.6798 10.8326 11.6836 10.8255 11.6869C10.8194 11.6906 10.8129 11.6944 10.8063 11.6977C10.8002 11.7005 10.7936 11.7043 10.787 11.7071C10.7805 11.7108 10.7743 11.7146 10.7678 11.7169C10.7612 11.7207 10.7551 11.7235 10.748 11.7268C10.7419 11.7301 10.7354 11.7334 10.7288 11.7367C10.7227 11.7395 10.7161 11.7423 10.7095 11.7451C10.7034 11.7489 10.6969 11.7522 10.6903 11.755L10.671 11.7644L10.6513 11.7738C10.6452 11.7771 10.6386 11.7799 10.6321 11.7836C10.6255 11.7855 10.6189 11.7888 10.6123 11.7916L10.5926 11.8005L10.5733 11.8095C10.5668 11.8118 10.5607 11.8142 10.5541 11.8174C10.5475 11.8203 10.5414 11.8231 10.5348 11.825C10.5287 11.8278 10.5217 11.8301 10.5156 11.8325L10.4959 11.84C10.4893 11.8419 10.4832 11.8447 10.4766 11.8466C10.47 11.8499 10.4639 11.8517 10.4569 11.8541L10.4376 11.8597L10.4184 11.8663C10.4118 11.8682 10.4052 11.8705 10.3991 11.8724L10.3799 11.878L10.3601 11.8837C10.354 11.8855 10.3475 11.8884 10.3409 11.8902L10.3216 11.8968C10.3155 11.8987 10.309 11.8996 10.3024 11.9015C10.2958 11.9034 10.2892 11.9053 10.2827 11.9071L10.2634 11.9123C10.2568 11.9142 10.2507 11.9165 10.2441 11.9175C10.238 11.9194 10.2315 11.9212 10.2249 11.9231L10.2056 11.9283C10.1991 11.9297 10.193 11.9316 10.1864 11.933C10.1798 11.9344 10.1737 11.9363 10.1667 11.9381L10.1474 11.9419C10.1408 11.9438 10.1347 11.9447 10.1281 11.9466L10.1089 11.9494L10.0896 11.9532C10.0831 11.955 10.077 11.956 10.0704 11.9579L10.0511 11.9616L10.0319 11.9658L10.0126 11.9696C10.0056 11.9705 9.99994 11.971 9.99337 11.9724C9.98679 11.9734 9.98022 11.9743 9.97364 11.9762L9.95439 11.979C9.94828 11.9809 9.94171 11.9818 9.93513 11.9828L9.91588 11.9856L9.89662 11.9889L9.8769 11.979C9.8708 11.9804 9.86469 11.9809 9.85765 11.9823L9.83839 11.9856L9.81914 11.9865L9.79988 11.9893L9.78016 11.9907L9.7609 11.9931L9.74165 11.9959L9.72239 11.9978L9.70314 11.9997L9.68389 12.0025L9.66463 12.0044L9.64538 12.0062L9.62612 12.0086L9.60687 12.0095L9.58714 12.0114L9.56789 12.0133L9.54817 12.0142L9.52891 12.0152L9.50966 12.0161L9.48993 12.018L9.47068 12.0189L9.45377 12.0217L9.43452 12.0227L9.41526 12.0236L9.39601 12.0245H9.37675L9.3575 12.025L9.33778 12.026L9.31852 12.0274L9.29927 12.0283H9.28001L9.26076 12.0292H9.2415L9.22178 12.0302H9.20252L9.18327 12.0311H9.16402H9.14476H9.12504H9.10578H9.08794H9.06868H9.05694H9.04943H9.03017H9.01045H8.99119H8.97194H8.95269H8.93343H8.91418L8.89492 12.0302H8.87567H8.85641H8.83669L8.81743 12.0297H8.79771L8.77846 12.0288H8.7592L8.73995 12.0274H8.72069L8.70144 12.0264L8.68218 12.0255L8.66293 12.0245L8.64321 12.0236L8.6263 12.0213L8.60704 12.0203L8.58732 12.0189L8.56807 12.018L8.54834 12.017L8.52909 12.0152L8.50983 12.0142L8.49058 12.0133L8.47085 12.0114L8.4516 12.0105L8.43235 12.0091L8.41309 12.0086L8.39384 12.0067L8.37458 12.0058L8.35486 12.0039L8.3356 12.0029L8.31635 12.0011L8.29709 11.9992L8.28019 11.9964L8.26046 11.9945L8.24121 11.9926L8.22195 11.9907L8.2027 11.9889L8.18298 11.987L8.16372 11.9842L8.14447 11.9823L8.12521 11.9804L8.10596 11.9785L8.0867 11.9766L8.06698 11.9738L8.04773 11.972L8.02847 11.9701L8.00922 11.9682L7.98996 11.9654L7.97024 11.963L7.95098 11.9602L7.93173 11.9583L7.91247 11.9555L7.89322 11.9527L7.87397 11.9499L7.85424 11.948L7.83499 11.9452L7.81573 11.9414L7.79648 11.9395L7.77675 11.9367L7.7575 11.9334L7.73824 11.9306L7.71899 11.9278L7.69974 11.9245L7.68001 11.9217L7.66076 11.9189L7.64103 11.9161L7.62178 11.9123L7.60252 11.9095L7.58327 11.9057L7.56402 11.9029L7.54476 11.8996L7.52504 11.8959L7.50578 11.8926L7.48606 11.8888L7.4668 11.8846L7.44755 11.8818L7.42829 11.8785L7.40904 11.8747L7.38932 11.871L7.37006 11.8672L7.35081 11.8635L7.33155 11.8588L7.31183 11.855L7.29257 11.8503L7.27332 11.8461L7.25407 11.8423L7.23481 11.839L7.21556 11.8344L7.19583 11.8297L7.17658 11.8259L7.15732 11.8212L7.13807 11.8165L7.11881 11.8113L7.09909 11.8062L7.07984 11.8015L7.06058 11.7968L7.04133 11.7921C7.01409 11.786 7 11.7822 7 11.7822V15.9919H7.04133H7.06058H7.07984H7.10613H7.12586H7.14511H7.16437H7.18362H7.20288H7.2226H7.24185H7.26111H7.28036H7.29962H7.31887H7.3386H7.35785H7.37711H7.39636H7.41608H7.43534H7.45459H7.47385H7.4931H7.51283H7.53208H7.55181H7.57106H7.59031H7.60957H7.62882H7.64808H7.6678H7.68706H7.70678H7.72603H7.74529H7.76454H7.7838H7.80352H7.82278H7.84203H7.86129H7.88101H7.90026H7.91952H7.93877H7.95803H7.97728H7.99701H8.01626H8.03552H8.05477H8.07402H8.09375H8.113H8.13226H8.15151H8.17077H8.19002H8.20974H8.229H8.24825H8.26751H8.28019H8.29944H8.3187H8.33795H8.35721H8.37693H8.39618H8.41544H8.43469H8.45395H8.4732H8.49293H8.51218H8.53144H8.55069H8.57041H8.58967H8.60939H8.62865H8.6479H8.66763H8.68688H8.70613H8.72539H8.74464H8.7639H8.78315H8.80241H8.82213H8.84139H8.86111H8.88036H8.89962H8.91887H8.93813H8.95738H8.97664H8.99589H9.01515H9.03487H9.05412H9.07338H9.09263H9.11189H9.13114H9.15087H9.17012H9.18937H9.20863H9.22788H9.24761H9.26686H9.28612H9.30537H9.32463H9.34388H9.3636H9.38286H9.40211H9.42137H9.44062H9.45988H9.47913H9.49839H9.51811H9.53736H9.55662H9.57634H9.5956H9.61532H9.63458H9.65383H9.67308H9.69234H9.71159H9.73085H9.7501H9.76936H9.78861H9.80834H9.82759H9.84684H9.8661H9.8769H9.89662H9.91588H9.93513H9.93654C9.94265 15.9919 9.94828 15.9919 9.95439 15.9919H9.97364C9.98022 15.9919 9.98679 15.9919 9.99337 15.991C9.99994 15.991 10.006 15.991 10.0126 15.991C10.0187 15.991 10.0253 15.99 10.0319 15.99L10.0511 15.9891L10.0704 15.9882C10.077 15.9872 10.0831 15.9872 10.0896 15.9872C10.0962 15.9863 10.1023 15.9863 10.1089 15.9853L10.1281 15.9835C10.1347 15.983 10.1408 15.9825 10.1474 15.9816C10.154 15.9806 10.1601 15.9797 10.1667 15.9788C10.1732 15.9778 10.1793 15.9778 10.1864 15.9769C10.193 15.9759 10.1991 15.975 10.2056 15.9741L10.2249 15.9722C10.231 15.9712 10.2376 15.9703 10.2441 15.9684C10.2507 15.9675 10.2568 15.9666 10.2634 15.9656C10.27 15.9642 10.2761 15.9633 10.2827 15.9619L10.3024 15.9586C10.3085 15.9576 10.3151 15.9553 10.3216 15.9543C10.3282 15.9525 10.3343 15.9515 10.3409 15.9506C10.3475 15.9496 10.3536 15.9478 10.3601 15.9459L10.3799 15.9417L10.3991 15.9365C10.4057 15.9356 10.4118 15.9337 10.4184 15.9318C10.4245 15.9309 10.4311 15.929 10.4376 15.9271C10.4442 15.9252 10.4503 15.9233 10.4569 15.9215C10.4635 15.9191 10.4696 15.9182 10.4766 15.9163L10.4959 15.9102L10.5156 15.9046C10.5217 15.9027 10.5283 15.9008 10.5348 15.898C10.5414 15.8961 10.5475 15.8942 10.5541 15.8924C10.5607 15.8895 10.5668 15.8877 10.5733 15.8858L10.5926 15.8778L10.6119 15.8707C10.6184 15.8689 10.625 15.8661 10.6316 15.8637C10.6382 15.8614 10.6443 15.8585 10.6508 15.8557C10.6574 15.8538 10.6635 15.852 10.6706 15.8491C10.6771 15.8463 10.6832 15.843 10.6898 15.8402C10.6959 15.8379 10.7025 15.8341 10.7091 15.8313L10.7283 15.8228L10.7476 15.8144C10.7542 15.8116 10.7603 15.8088 10.7673 15.805C10.7734 15.8022 10.78 15.7989 10.7866 15.7961C10.7931 15.7919 10.7992 15.789 10.8058 15.7862C10.8124 15.7829 10.8185 15.7796 10.8251 15.7764C10.8321 15.7731 10.8382 15.7703 10.8448 15.7665C10.8514 15.7627 10.8575 15.759 10.864 15.7566L10.8833 15.7468C10.8894 15.743 10.896 15.7393 10.9026 15.736C10.9091 15.7322 10.9152 15.7285 10.9218 15.7266C10.9284 15.7219 10.935 15.7181 10.9411 15.7158C10.9476 15.712 10.9537 15.7083 10.9608 15.7045C10.9669 15.7007 10.9735 15.6965 10.98 15.6932C10.9866 15.6895 10.9932 15.6848 10.9993 15.6815C11.0059 15.6768 11.012 15.673 11.0185 15.6707C11.0251 15.6655 11.0312 15.6613 11.0378 15.658C11.0444 15.6543 11.051 15.6496 11.0575 15.6458C11.0636 15.6416 11.0702 15.6369 11.0768 15.6327C11.0834 15.628 11.0895 15.6237 11.096 15.62C11.1021 15.6153 11.1087 15.6106 11.1153 15.6064C11.1219 15.6007 11.1284 15.5965 11.1345 15.5927C11.1411 15.5876 11.1472 15.5829 11.1538 15.5782C11.1604 15.5725 11.1665 15.5683 11.1735 15.5636C11.1796 15.5589 11.1862 15.5538 11.1928 15.5486C11.1994 15.5434 11.2055 15.5383 11.212 15.5326C11.2186 15.5275 11.2247 15.5228 11.2313 15.5171C11.2379 15.511 11.244 15.5068 11.2505 15.5007C11.2571 15.4951 11.2632 15.4899 11.2698 15.4833C11.2764 15.4777 11.2825 15.473 11.2891 15.4664C11.2956 15.4603 11.3017 15.4551 11.3083 15.4481C11.3149 15.442 11.321 15.4368 11.3276 15.4302C11.3341 15.4227 11.3402 15.4185 11.3468 15.4115C11.3534 15.4044 11.3595 15.3983 11.3661 15.3922C11.3726 15.3842 11.3792 15.38 11.3858 15.3725C11.3924 15.365 11.3985 15.3589 11.405 15.3523C11.4116 15.3448 11.4177 15.3387 11.4248 15.3316C11.4313 15.3236 11.4375 15.3171 11.444 15.3096C11.4506 15.3016 11.4567 15.295 11.4633 15.287C11.4699 15.2795 11.4764 15.272 11.4825 15.264C11.4891 15.2555 11.4952 15.2485 11.5018 15.24C11.5084 15.2316 11.5145 15.2245 11.521 15.2156C11.5276 15.2067 11.5337 15.1987 11.5403 15.1903C11.5469 15.1818 11.553 15.1729 11.5596 15.1644C11.5661 15.1546 11.5722 15.1461 11.5788 15.1367C11.5854 15.1269 11.592 15.1179 11.5981 15.1081C11.6046 15.0982 11.6112 15.0888 11.6173 15.079C11.6239 15.0691 11.6305 15.0588 11.637 15.0494C11.6436 15.0395 11.6497 15.0282 11.6563 15.0189C11.6629 15.009 11.6694 14.9977 11.6756 14.9874C11.6821 14.9756 11.6887 14.9639 11.6948 14.9526C11.7014 14.9414 11.7075 14.9296 11.7141 14.9169C11.7206 14.9052 11.7272 14.8921 11.7333 14.8794C11.7399 14.8667 11.746 14.8535 11.7526 14.8399C11.7591 14.8268 11.7657 14.8122 11.7718 14.7986C11.7784 14.7836 11.785 14.7685 11.7911 14.7535C11.7981 14.7371 11.8042 14.7216 11.8108 14.7047C11.8174 14.6873 11.8235 14.6699 11.8301 14.653C11.8366 14.6338 11.8432 14.6145 11.8493 14.5953C11.8559 14.5741 11.8625 14.5521 11.8686 14.5304C11.8756 14.5051 11.8822 14.4816 11.8878 14.4567C11.8949 14.4276 11.9014 14.3966 11.9071 14.367C11.9146 14.3276 11.9212 14.2872 11.9268 14.2468C11.9371 14.1623 11.9432 14.0773 11.9432 13.9909V4.00952H11.9268Z" fill="#006c81"></path>
        <path d="M22.9916 4.0061H22.9578V4.00845H22.939H22.9197H22.9005H22.8812H22.862H22.8427H22.8235H22.8037H22.7845H22.7652H22.745H22.7267H22.7075H22.6882H22.6689H22.6497H22.6304H22.6112H22.591H22.5717H22.5525H22.5342H22.514H22.4947H22.4755H22.4562H22.437H22.4182H22.3989H22.3797H22.3604H22.3411H22.3219H22.3026H22.2834H22.2641H22.2449H22.2247H22.2054H22.1862H22.1679H22.1486H22.1293H22.1101H22.0908H22.0716H22.0523H22.0331H22.0129H21.9941H21.9739H21.9547H21.9354H21.9161H21.8969H21.8776H21.8584H21.8391H21.8189H21.8016H21.7823H21.763H21.7438H21.7245H21.7053H21.686H21.6668H21.6475H21.6283H21.609H21.5898H21.5696H21.5498H21.5306H21.5113H21.4921H21.4728H21.4536H21.4353H21.4151H21.3958H21.3765H21.3573H21.338H21.3178H21.2986H21.2793H21.2601H21.2427H21.2225H21.2033H21.184H21.1647H21.146H21.1267H21.1075H21.0882H21.0689H21.0497H21.0304H21.0112H20.9919H20.9727H20.9525H20.9332H20.914H20.8947H20.8764H20.8571H20.8379H20.8186H20.7994H20.7801H20.7609H20.7416H20.7214H20.7026H20.6834H20.6641H20.6449H20.6256H20.6054H20.5862H20.5669H20.5477H20.5284H20.5101H20.4899H20.4716H20.4523H20.4321H20.4129H20.3936H20.3744H20.3551H20.3368H20.3176H20.2983H20.279H20.2598H20.2405H20.2208H20.2016H20.1823H20.163H20.1438H20.1236H20.1043H20.0851H20.0658H20.0517H20.0466C20.04 4.00845 20.0344 4.00845 20.0273 4.00845C20.0198 4.00845 20.0151 4.00845 20.0081 4.00845C20.0015 4.00845 19.9959 4.00892 19.9888 4.00939L19.9696 4.00986C19.963 4.00986 19.9574 4.00986 19.9503 4.01033C19.9428 4.01033 19.9372 4.01127 19.9301 4.01127C19.9245 4.01174 19.9179 4.01221 19.9109 4.01268L19.8916 4.01362L19.8723 4.01644C19.8658 4.0169 19.8601 4.01737 19.8531 4.01831C19.8465 4.01878 19.8399 4.01972 19.8329 4.02019L19.8136 4.02207C19.808 4.02254 19.8014 4.02348 19.7944 4.02442C19.7878 4.02536 19.7822 4.02583 19.7751 4.02677C19.7686 4.02771 19.7629 4.02865 19.7559 4.02958C19.7493 4.03005 19.7437 4.03146 19.7357 4.0324L19.7164 4.03569C19.7099 4.03663 19.7042 4.03757 19.6972 4.03851C19.6906 4.03992 19.685 4.04133 19.6784 4.04226C19.6714 4.0432 19.6657 4.04461 19.6591 4.04602L19.6399 4.04978L19.6206 4.05401C19.6136 4.05541 19.608 4.05729 19.6014 4.05823C19.5943 4.05964 19.5887 4.06105 19.5821 4.06293C19.5751 4.06481 19.5685 4.06622 19.5629 4.06762L19.5436 4.07279C19.5366 4.0742 19.53 4.07608 19.5234 4.07796C19.5164 4.07983 19.5107 4.08124 19.5042 4.08359C19.4981 4.08547 19.4915 4.08735 19.4849 4.08923C19.4779 4.0911 19.4722 4.09298 19.4657 4.09486C19.4586 4.09674 19.453 4.09862 19.4464 4.10097L19.4262 4.10707C19.4201 4.10942 19.4135 4.1113 19.407 4.11365C19.3999 4.11599 19.3943 4.11787 19.3877 4.12069C19.3807 4.12257 19.375 4.12539 19.3684 4.12727C19.3614 4.12961 19.3562 4.13196 19.3492 4.13431L19.3299 4.14182L19.3097 4.14934C19.3036 4.15169 19.2975 4.1545 19.2905 4.15732C19.2834 4.15967 19.2783 4.16249 19.2712 4.16531C19.2642 4.16812 19.259 4.17094 19.252 4.17376C19.2449 4.17658 19.2398 4.17939 19.2327 4.18221C19.2257 4.18503 19.2205 4.18832 19.2135 4.19113C19.2064 4.19395 19.2013 4.19724 19.1942 4.20053L19.175 4.20992C19.1679 4.21321 19.1628 4.21649 19.1557 4.21978C19.1487 4.22307 19.1435 4.22636 19.1365 4.22964C19.1294 4.23293 19.1242 4.23622 19.1163 4.23951C19.1102 4.24279 19.104 4.24655 19.097 4.24984C19.09 4.25312 19.0848 4.25688 19.0778 4.26017C19.0707 4.26346 19.0655 4.26768 19.0585 4.27097C19.0515 4.27473 19.0463 4.27848 19.0392 4.28224C19.0322 4.286 19.027 4.28975 19.02 4.29351C19.0129 4.29727 19.0078 4.3015 19.0007 4.30525L18.9815 4.31746C18.9749 4.32169 18.9683 4.32592 18.9613 4.33014L18.9416 4.34235L18.9223 4.3555C18.9157 4.35973 18.9096 4.36442 18.9031 4.36912L18.8838 4.38274C18.8772 4.38744 18.8711 4.39213 18.8645 4.39683C18.858 4.40152 18.8519 4.40622 18.8453 4.41092L18.826 4.42594L18.8068 4.44097C18.8002 4.4452 18.7941 4.4513 18.7875 4.456C18.7809 4.46117 18.7744 4.46586 18.7683 4.47197C18.7622 4.47807 18.7556 4.48324 18.749 4.48887C18.7424 4.49451 18.7363 4.50015 18.7288 4.50578C18.7222 4.51142 18.7171 4.51705 18.7096 4.52269C18.703 4.52879 18.6969 4.53443 18.6913 4.54053C18.6837 4.54664 18.6776 4.55227 18.6711 4.55838C18.6645 4.56448 18.6584 4.57059 18.6518 4.57716C18.6452 4.58327 18.6391 4.58984 18.6325 4.59595C18.625 4.60252 18.6199 4.6091 18.6133 4.61567C18.6058 4.62272 18.6006 4.62929 18.594 4.63587C18.5875 4.64291 18.5814 4.64948 18.5748 4.65653C18.5673 4.66357 18.5612 4.67109 18.5555 4.67813C18.548 4.68518 18.5419 4.69222 18.5353 4.69973C18.5288 4.70725 18.5227 4.71476 18.5161 4.72275C18.5095 4.73073 18.5034 4.73824 18.4968 4.74576C18.4903 4.75374 18.4841 4.76172 18.4776 4.76971C18.471 4.77816 18.4649 4.78661 18.4583 4.79507C18.4517 4.80352 18.4456 4.81197 18.4391 4.82043C18.4325 4.82982 18.4264 4.83827 18.4198 4.8472C18.4132 4.85612 18.4076 4.86551 18.4006 4.8749C18.394 4.8843 18.3883 4.89416 18.3813 4.90355C18.3738 4.91341 18.3682 4.92327 18.362 4.93314C18.3545 4.94347 18.3489 4.9538 18.3428 4.96413C18.3353 4.97493 18.3296 4.98573 18.3226 4.99607C18.316 5.00734 18.3104 5.01861 18.3033 5.02988C18.2968 5.04115 18.2907 5.05289 18.2836 5.0651C18.2766 5.07731 18.2709 5.08952 18.2639 5.10173C18.2564 5.11488 18.2517 5.12756 18.2446 5.14071C18.2371 5.15433 18.2315 5.16795 18.2254 5.18204C18.2179 5.19659 18.2132 5.21162 18.2061 5.22618C18.1986 5.24168 18.193 5.25764 18.1869 5.27361C18.1794 5.29052 18.1737 5.30789 18.1676 5.3248C18.1601 5.34359 18.1545 5.36237 18.1484 5.38115C18.1409 5.40135 18.1352 5.42248 18.1282 5.44314C18.1216 5.46616 18.116 5.49011 18.1089 5.51359C18.1014 5.5413 18.0958 5.56947 18.0897 5.59765C18.062 5.72914 18.0483 5.86533 18.0483 6.00481V8.07866H18.0897H18.1089H18.1282H18.1484H18.1676H18.1869H18.2061H18.2254H18.2446H18.2639H18.2832H18.3024H18.3217H18.3419H18.3611H18.3804H18.3996H18.4189H18.4381H18.4574H18.4766H18.4959H18.5151H18.5344H18.5546H18.5738H18.5931H18.6124H18.6316H18.6509H18.6701H18.6903H18.7086H18.7279H18.7481H18.7673H18.7866H18.8058H18.8251H18.8443H18.8636H18.8829H18.9021H18.9214H18.9406H18.9599H18.9801H18.9993H19.0186H19.0378H19.0571H19.0763H19.0956H19.1149H19.135H19.1543H19.1736H19.1928H19.2121H19.2313H19.2506H19.2698H19.2891H19.3083H19.3285H19.3478H19.367H19.3863H19.4102H19.4295H19.4488H19.468H19.4882H19.5075H19.5267H19.546H19.5652H19.5845H19.6037H19.623H19.6432H19.6624H19.6817H19.7009H19.7202H19.7394H19.7587H19.778H19.7981H19.8174H19.8367H19.8559H19.8752H19.8944H19.9151H19.9343H19.9536H19.9728H19.9921H20.0114H20.0306H20.0508H20.0701H20.0893H20.1086H20.1278H20.1471H20.1663H20.1856H20.2048H20.2241H20.2434H20.2626H20.2819H20.3011H20.3204H20.3396H20.3589H20.3781H20.3974H20.4166H20.4359H20.4551H20.4744H20.4937H20.5139H20.5331H20.5524H20.5721H20.5913H20.6106H20.6308H20.65H20.6693H20.6886H20.7078H20.7271H20.7463H20.7656H20.7848H20.8041H20.8233H20.8435H20.8628H20.882H20.8914H20.9018H20.921L20.9398 8.07913L20.9591 8.0796L20.9788 8.08007L20.9976 8.08101L21.0168 8.08195L21.0361 8.08289L21.0563 8.08383L21.0755 8.08476L21.0873 8.0857L21.0948 8.08617L21.114 8.08711L21.1333 8.08852L21.1525 8.08993L21.1718 8.09134L21.191 8.09369L21.2103 8.09557L21.2296 8.09791L21.2497 8.10026L21.269 8.10261L21.2883 8.10496C21.2944 8.1059 21.3005 8.10684 21.3075 8.10825L21.3268 8.11153C21.3338 8.11247 21.339 8.11388 21.346 8.11529C21.3531 8.11623 21.3582 8.11811 21.3653 8.11905L21.3845 8.1228C21.3916 8.12421 21.3977 8.12609 21.4047 8.12703C21.4118 8.12844 21.4169 8.13032 21.424 8.13173L21.4432 8.13689C21.4503 8.1383 21.4554 8.14018 21.4625 8.14159C21.4695 8.14347 21.4747 8.14535 21.4817 8.14722C21.4888 8.1491 21.4949 8.15098 21.501 8.15333C21.508 8.15521 21.5132 8.15709 21.5203 8.15896C21.5273 8.16131 21.5325 8.16319 21.5395 8.16554C21.5465 8.16742 21.5517 8.16977 21.5597 8.17211C21.5658 8.17399 21.5719 8.17681 21.579 8.17916C21.586 8.18151 21.5912 8.18386 21.5982 8.1862C21.6048 8.18902 21.6104 8.19137 21.6175 8.19419C21.6245 8.197 21.6306 8.19935 21.6367 8.20264C21.6433 8.20546 21.6489 8.20781 21.6569 8.21062C21.6635 8.21391 21.6691 8.21673 21.6762 8.21955C21.6827 8.22236 21.6884 8.22612 21.6954 8.22894C21.7011 8.23176 21.7076 8.23504 21.7147 8.2388C21.7212 8.24209 21.7269 8.24538 21.7339 8.24866C21.7405 8.25195 21.7461 8.25571 21.7532 8.25899C21.7598 8.26275 21.7654 8.26651 21.7724 8.27027C21.779 8.27402 21.7856 8.27825 21.7917 8.28201C21.7983 8.28623 21.8039 8.28999 21.8109 8.29422C21.8175 8.29844 21.8241 8.30267 21.8302 8.3069C21.8368 8.31112 21.8424 8.31582 21.8504 8.32051C21.856 8.32521 21.8626 8.32991 21.8696 8.3346C21.8762 8.33977 21.8819 8.34447 21.8889 8.3501C21.8955 8.3548 21.9011 8.36043 21.9077 8.36607C21.9147 8.37123 21.9204 8.37687 21.9269 8.38297C21.934 8.38861 21.9396 8.39471 21.9462 8.40082C21.9532 8.40692 21.9589 8.41303 21.9655 8.4196C21.9725 8.42665 21.9781 8.43322 21.9847 8.4398C21.9918 8.44731 21.9983 8.45389 22.0049 8.4614C22.0119 8.46891 22.0176 8.4769 22.0242 8.48441C22.0312 8.49287 22.0368 8.50085 22.0434 8.5093C22.0505 8.51869 22.057 8.52715 22.0627 8.53654C22.0697 8.5464 22.0753 8.55626 22.0819 8.56613C22.089 8.57693 22.0955 8.58773 22.1012 8.599C22.1082 8.61121 22.1148 8.62389 22.1204 8.63657C22.1284 8.65066 22.134 8.66522 22.1397 8.68024C22.1477 8.69762 22.1533 8.715 22.1599 8.73284C22.1669 8.75491 22.1735 8.77793 22.1791 8.80141C22.1881 8.83898 22.1946 8.87795 22.1984 8.91787C22.2012 8.94887 22.2036 8.98127 22.2036 9.01462C22.2036 9.04561 22.2012 9.07661 22.1984 9.1076C22.1946 9.14658 22.1885 9.18462 22.1791 9.22172C22.1735 9.24473 22.1679 9.26774 22.1599 9.29028C22.1533 9.30813 22.1477 9.3255 22.1397 9.34288C22.134 9.35744 22.1284 9.37247 22.1204 9.38702C22.1148 9.40017 22.1082 9.41285 22.1012 9.42553C22.0955 9.4368 22.089 9.44807 22.0819 9.45935C22.0753 9.46968 22.0697 9.47954 22.0627 9.48987C22.057 9.49973 22.0505 9.50913 22.0434 9.51805C22.0368 9.52697 22.0312 9.53542 22.0242 9.54388C22.0176 9.55186 22.0119 9.55985 22.0049 9.56783C21.9983 9.57534 21.9927 9.58286 21.9847 9.5899C21.9791 9.59695 21.9725 9.60399 21.9655 9.61103C21.9589 9.61761 21.9532 9.62418 21.9462 9.63076C21.9396 9.63686 21.934 9.64297 21.9269 9.64954C21.9204 9.65565 21.9147 9.66128 21.9077 9.66692C21.9011 9.67255 21.8955 9.67819 21.8889 9.6843C21.8819 9.68899 21.8762 9.69416 21.8696 9.69932C21.8626 9.70449 21.857 9.70919 21.8504 9.71435C21.8434 9.71905 21.8377 9.72374 21.8302 9.72797C21.8241 9.73314 21.8175 9.73736 21.8109 9.74159C21.8039 9.74535 21.7983 9.75004 21.7917 9.7538C21.7856 9.75803 21.779 9.76178 21.7724 9.76601C21.7654 9.76977 21.7598 9.77352 21.7532 9.77681C21.7461 9.78057 21.7405 9.78432 21.7339 9.78761C21.7269 9.79137 21.7212 9.79466 21.7147 9.79747C21.7076 9.80076 21.702 9.80452 21.6954 9.80734C21.6884 9.81109 21.6827 9.81438 21.6762 9.8172C21.6691 9.82095 21.6635 9.82377 21.6569 9.82706C21.6499 9.82988 21.6447 9.8327 21.6367 9.83551C21.6306 9.83833 21.6245 9.84115 21.6175 9.84397C21.6104 9.84678 21.6053 9.8496 21.5982 9.85242C21.5912 9.85477 21.586 9.85805 21.579 9.85993C21.5719 9.86275 21.5667 9.86463 21.5597 9.86745C21.5527 9.8698 21.5465 9.87167 21.5395 9.87402C21.5325 9.8759 21.5273 9.87872 21.5203 9.8806C21.5132 9.88248 21.508 9.88435 21.501 9.88717C21.4949 9.88905 21.4888 9.89093 21.4817 9.89281C21.4747 9.89468 21.4695 9.89656 21.4625 9.89844C21.4554 9.90032 21.4503 9.9022 21.4432 9.90408C21.4362 9.90502 21.431 9.9069 21.424 9.90877C21.4169 9.91018 21.4118 9.91159 21.4047 9.913L21.3845 9.9177C21.3784 9.91958 21.3723 9.92052 21.3653 9.92239L21.346 9.92615C21.339 9.92709 21.3338 9.92803 21.3268 9.92944L21.3075 9.93272L21.2897 9.93554V9.95855L21.308 9.96043L21.3272 9.96137L21.3465 9.96325L21.3657 9.96513L21.385 9.96701L21.4052 9.96983L21.4244 9.97217C21.432 9.97311 21.4371 9.97405 21.4437 9.97499L21.463 9.97828C21.4705 9.97922 21.4756 9.98016 21.4822 9.98203L21.5015 9.98485L21.5207 9.98908C21.5282 9.99049 21.5334 9.99143 21.54 9.99284C21.5475 9.99425 21.5527 9.99518 21.5602 9.99706C21.5663 9.99894 21.5719 9.99988 21.5794 10.0018C21.586 10.0027 21.5921 10.0046 21.5987 10.0065C21.6053 10.0074 21.6114 10.0093 21.6179 10.0112C21.625 10.013 21.6306 10.0149 21.6372 10.0163C21.6438 10.0187 21.6499 10.0196 21.6574 10.0224L21.6766 10.0281C21.6823 10.0299 21.6884 10.0318 21.6959 10.0342C21.7015 10.036 21.7076 10.0384 21.7151 10.0403C21.7217 10.0431 21.7278 10.045 21.7344 10.0468C21.741 10.0492 21.7471 10.052 21.7537 10.0539C21.7602 10.0562 21.7663 10.0591 21.7729 10.0609C21.7795 10.0637 21.7856 10.0656 21.7922 10.0689C21.7987 10.0717 21.8048 10.0741 21.8114 10.0769C21.818 10.0797 21.8241 10.0825 21.8307 10.0854C21.8372 10.0882 21.8434 10.091 21.8509 10.0938C21.8565 10.0966 21.8626 10.0994 21.8701 10.1032C21.8767 10.106 21.8819 10.1093 21.8894 10.1126C21.8959 10.1159 21.9021 10.1192 21.9086 10.1225C21.9152 10.1253 21.9204 10.129 21.9279 10.1323C21.9345 10.1356 21.9406 10.1394 21.9462 10.1426C21.9537 10.1464 21.9589 10.1497 21.9664 10.153C21.973 10.1572 21.9791 10.161 21.9856 10.1642C21.9922 10.1675 21.9983 10.1722 22.0049 10.176C22.0124 10.1797 22.0176 10.1844 22.0242 10.1877C22.0317 10.192 22.0378 10.1971 22.0443 10.2004C22.0509 10.2051 22.057 10.2098 22.0636 10.214C22.0702 10.2183 22.0763 10.2234 22.0829 10.2281C22.0894 10.2328 22.0955 10.238 22.1021 10.2422C22.1087 10.2483 22.1148 10.2521 22.1214 10.2586C22.1279 10.2633 22.134 10.2685 22.1406 10.2751C22.1472 10.2807 22.1533 10.2859 22.1599 10.2915C22.1664 10.2981 22.1726 10.3042 22.1791 10.3098C22.1866 10.3173 22.1927 10.3225 22.1993 10.3291C22.2059 10.3366 22.212 10.3427 22.2186 10.3502C22.2261 10.3577 22.2313 10.3648 22.2378 10.3723C22.2444 10.3798 22.2505 10.3878 22.2571 10.3953C22.2646 10.4042 22.2698 10.4127 22.2763 10.4216C22.2839 10.4305 22.2895 10.4385 22.2956 10.4484C22.3031 10.4582 22.3087 10.469 22.3149 10.478C22.3224 10.4878 22.328 10.4996 22.3341 10.5099C22.3416 10.5216 22.3473 10.5348 22.3543 10.5465C22.3609 10.5611 22.3665 10.5752 22.3736 10.5897C22.3811 10.6052 22.3867 10.6217 22.3928 10.639C22.4003 10.6592 22.406 10.6804 22.4121 10.7024C22.4205 10.7334 22.4262 10.7668 22.4313 10.7996C22.437 10.84 22.4398 10.8823 22.4398 10.9246C22.4398 10.9692 22.437 11.0124 22.4313 11.0528C22.4262 11.0875 22.4205 11.1213 22.4121 11.1537C22.406 11.1758 22.4003 11.1979 22.3928 11.22C22.3867 11.2373 22.3811 11.2547 22.3736 11.2711C22.3665 11.2857 22.3618 11.3003 22.3543 11.3153C22.3477 11.328 22.3416 11.3406 22.3341 11.3529C22.328 11.3646 22.3224 11.3759 22.3149 11.3867C22.3087 11.3965 22.3031 11.4078 22.2956 11.4177C22.2895 11.4271 22.2839 11.436 22.2763 11.4454C22.2698 11.4548 22.2646 11.4628 22.2571 11.4721C22.2505 11.4811 22.2453 11.4886 22.2378 11.4975C22.2313 11.505 22.2252 11.5116 22.2186 11.5196C22.212 11.5276 22.2059 11.5337 22.1993 11.5407C22.1927 11.5487 22.1866 11.5539 22.1791 11.5609C22.1726 11.5679 22.1674 11.5731 22.1599 11.5802C22.1533 11.5863 22.1481 11.5914 22.1406 11.5975C22.134 11.6032 22.1279 11.6088 22.1214 11.6149C22.1148 11.6205 22.1087 11.6252 22.1021 11.6299C22.0955 11.636 22.0894 11.6398 22.0829 11.6454C22.0763 11.6511 22.0702 11.6553 22.0636 11.66C22.057 11.6656 22.0509 11.6699 22.0443 11.6746C22.0378 11.6792 22.0317 11.6839 22.0242 11.6872C22.0185 11.6919 22.0124 11.6966 22.0049 11.6994C21.9983 11.7037 21.9932 11.7084 21.9856 11.7107C21.9791 11.7149 21.973 11.7196 21.9664 11.7225C21.9598 11.7262 21.9537 11.73 21.9462 11.7333C21.9406 11.737 21.9345 11.7408 21.9279 11.7431C21.9204 11.7469 21.9152 11.7506 21.9086 11.7534C21.9021 11.7563 21.8959 11.7605 21.8894 11.7633C21.8819 11.7671 21.8767 11.7708 21.8701 11.7732C21.8626 11.776 21.8574 11.7797 21.8509 11.7826C21.8434 11.7854 21.8382 11.7882 21.8307 11.7915C21.8241 11.7943 21.818 11.7971 21.8114 11.8004C21.8048 11.8032 21.7987 11.806 21.7922 11.8089C21.7856 11.8117 21.7795 11.8145 21.7729 11.8173C21.7663 11.8201 21.7602 11.822 21.7537 11.8248C21.7471 11.8267 21.741 11.83 21.7344 11.8319C21.7278 11.8347 21.7217 11.8366 21.7151 11.8389C21.7086 11.8408 21.7025 11.8436 21.6959 11.8455L21.6766 11.8483C21.6691 11.8502 21.664 11.8521 21.6574 11.8539C21.6499 11.8558 21.6447 11.8586 21.6372 11.8596C21.6306 11.8615 21.625 11.8633 21.6179 11.8657C21.6114 11.8676 21.6062 11.8685 21.5987 11.8704C21.5921 11.8723 21.586 11.8732 21.5794 11.8755C21.5719 11.8774 21.5667 11.8784 21.5602 11.8802L21.54 11.884C21.5334 11.8849 21.5282 11.8878 21.5207 11.8887C21.5141 11.8896 21.509 11.8906 21.5015 11.8925L21.4822 11.8953L21.463 11.899C21.4564 11.9 21.4512 11.9009 21.4437 11.9018C21.4371 11.9028 21.432 11.9037 21.4244 11.9047C21.4179 11.9056 21.4118 11.907 21.4052 11.908L21.385 11.9098C21.3784 11.9108 21.3733 11.9117 21.3657 11.9117C21.3592 11.9126 21.354 11.9136 21.3465 11.9136L21.3272 11.9131L21.308 11.915L21.2887 11.9159L21.2695 11.9169L21.2427 11.9197C21.2361 11.9206 21.2305 11.9206 21.2225 11.9206C21.2159 11.9206 21.2103 11.9206 21.2033 11.9216H21.184H21.1647H21.1554H21.146H21.1267H21.1075H21.0882H21.0689H21.0497H21.0304H21.0112H20.9919H20.9727H20.9525H20.9332H20.914H20.8947H20.8764H20.8571H20.8379H20.8186H20.7994H20.7801H20.7609H20.7416H20.7214H20.7026H20.6834H20.6641H20.6449H20.6256H20.6054H20.5862H20.5669H20.5477H20.5284H20.5101H20.4899H20.4716H20.4523H20.4321H20.4129H20.3936H20.3744H20.3551H20.3368H20.3176H20.2983H20.279H20.2598H20.2405H20.2208H20.2016H20.1823H20.163H20.1438H20.1236H20.1043H20.0851H20.0658H20.0466H20.0273H20.0081H19.9888H19.9696H19.9503H19.9311H19.9118H19.8916H19.8723H19.8531H19.8338H19.8146H19.7953H19.7775H19.7582H19.739H19.7197H19.7005H19.6812H19.662H19.6427H19.6225H19.6033H19.5849H19.5657H19.5464H19.5272H19.5079H19.4887H19.4685H19.4488H19.4295H19.4112H19.391H19.3717H19.3525H19.3332H19.314H19.2947H19.2755H19.2562H19.237H19.2177H19.1984H19.1801H19.1609H19.1416H19.121H19.1022H19.0829H19.0637H19.0453H19.0252H19.0059H18.9866H18.9669H18.9472H18.927H18.9077H18.8885H18.8702H18.8509H18.8317H18.8124H18.7932H18.7739H18.7547H18.7354H18.7161H18.6969H18.6776H18.6584H18.6391H18.6199H18.6006H18.5814H18.5621H18.5419H18.5227H18.5039H18.4856H18.4663H18.447H18.4278H18.4085H18.3893H18.37H18.3508H18.3306H18.3123H18.293H18.2738H18.2536H18.2343H18.2151H18.1958H18.1765H18.1568H18.1376H18.1193H18.0991H18.0582V15.9932H18.0995H18.1197H18.139H18.1582H18.1775H18.1967H18.216H18.2352H18.2545H18.2747H18.294H18.3132H18.3325H18.3517H18.371H18.3902H18.4095H18.4297H18.4489H18.4682H18.4874H18.5067H18.5259H18.5452H18.5645H18.5837H18.603H18.6222H18.6415H18.6617H18.6809H18.7002H18.7194H18.7387H18.7589H18.7781H18.7969H18.8162H18.8354H18.8547H18.8739H18.8932H18.9124H18.9317H18.951H18.9702H18.9904H19.0097H19.0289H19.0482H19.0674H19.0867H19.1059H19.1252H19.1454H19.1646H19.1839H19.2031H19.2224H19.2416H19.2609H19.2802H19.2994H19.3187H19.3389H19.3581H19.3774H19.3966H19.4102H19.4295H19.4488H19.468H19.4882H19.5075H19.5267H19.546H19.5652H19.5845H19.6037H19.623H19.6432H19.6624H19.6817H19.7009H19.7202H19.7394H19.7587H19.778H19.7981H19.8174H19.8367H19.8559H19.8752H19.8944H19.9151H19.9343H19.9536H19.9728H19.9921H20.0114H20.0306H20.0508H20.0701H20.0893H20.1086H20.1278H20.1471H20.1663H20.1856H20.2048H20.2241H20.2434H20.2626H20.2819H20.3011H20.3204H20.3396H20.3589H20.3781H20.3974H20.4166H20.4359H20.4551H20.4744H20.4937H20.5139H20.5331H20.5524H20.5721H20.5913H20.6106H20.6308H20.65H20.6693H20.6886H20.7078H20.7271H20.7463H20.7656H20.7848H20.8041H20.8233H20.8435H20.8628H20.882H20.9018H20.921H20.9403H20.9591H20.9788H20.9938H20.9976H21.0168C21.0239 15.9932 21.0295 15.9932 21.0361 15.9932L21.0553 15.9922H21.0746C21.0816 15.9922 21.0882 15.9922 21.0948 15.9913C21.1009 15.9913 21.1075 15.9913 21.114 15.9904L21.1333 15.9894C21.1403 15.9894 21.146 15.9885 21.1525 15.9885C21.1596 15.9876 21.1652 15.9876 21.1718 15.9866C21.1788 15.9857 21.1854 15.9857 21.191 15.9838C21.1981 15.9838 21.2033 15.9829 21.2103 15.9829C21.2173 15.9819 21.2225 15.981 21.2296 15.98C21.2366 15.98 21.2418 15.9791 21.2497 15.9782C21.2559 15.9772 21.262 15.9763 21.269 15.9763L21.2883 15.9725L21.3075 15.9697L21.3268 15.9669C21.3338 15.9659 21.339 15.965 21.346 15.9636C21.3531 15.9627 21.3582 15.9617 21.3653 15.9598L21.3845 15.9561L21.4047 15.9519C21.4118 15.95 21.4169 15.949 21.424 15.9472C21.431 15.9462 21.4362 15.9443 21.4432 15.9425L21.4625 15.9378L21.4817 15.9331L21.501 15.9274C21.508 15.9265 21.5132 15.9246 21.5203 15.9223C21.5273 15.9204 21.5325 15.9185 21.5395 15.9166C21.5465 15.9143 21.5517 15.9134 21.5597 15.9105L21.579 15.9049C21.586 15.903 21.5912 15.9011 21.5982 15.8993L21.6175 15.8927C21.6245 15.8899 21.6297 15.888 21.6367 15.8861C21.6433 15.8838 21.6489 15.8809 21.6569 15.8791C21.664 15.8763 21.6691 15.8739 21.6762 15.8711L21.6954 15.8645C21.7011 15.8617 21.7076 15.8589 21.7147 15.8561C21.7212 15.8542 21.7269 15.8514 21.7339 15.8485C21.7405 15.8457 21.7461 15.8429 21.7532 15.8396C21.7598 15.8377 21.7654 15.8345 21.7724 15.8316C21.779 15.8288 21.7846 15.826 21.7917 15.8227C21.7983 15.8194 21.8039 15.8166 21.8109 15.8138L21.8302 15.8044L21.8504 15.7945C21.856 15.7917 21.8626 15.7889 21.8696 15.7861C21.8762 15.7823 21.8819 15.7786 21.8889 15.7762C21.8955 15.7725 21.9011 15.7696 21.9082 15.7664C21.9147 15.7631 21.9204 15.7588 21.9269 15.7565C21.934 15.7523 21.9396 15.7495 21.9462 15.7466C21.9532 15.7424 21.9589 15.7387 21.9655 15.7368C21.9725 15.733 21.9781 15.7293 21.9847 15.726C21.9918 15.7227 21.9983 15.7185 22.0049 15.7152L22.0242 15.7048C22.0312 15.7011 22.0368 15.6959 22.0434 15.6936C22.0505 15.6898 22.0561 15.6851 22.0627 15.6818C22.0697 15.6781 22.0753 15.6734 22.0819 15.6701C22.089 15.6654 22.0946 15.6616 22.1012 15.6574C22.1082 15.6537 22.1139 15.649 22.1204 15.6452C22.1275 15.6414 22.1331 15.6363 22.1397 15.632C22.1467 15.6278 22.1524 15.6231 22.1599 15.6194C22.166 15.6147 22.1726 15.6095 22.1791 15.6058C22.1862 15.6011 22.1918 15.5959 22.1984 15.5921C22.2054 15.5865 22.2111 15.5823 22.2176 15.5766C22.2247 15.5719 22.2303 15.5668 22.2369 15.5621C22.2439 15.5564 22.2505 15.5522 22.2571 15.547C22.2641 15.5409 22.2693 15.5367 22.2763 15.5315C22.2824 15.5259 22.2886 15.5212 22.2956 15.5156C22.3026 15.5095 22.3083 15.5048 22.3149 15.4991C22.3219 15.493 22.3275 15.4883 22.3341 15.4818C22.3411 15.4761 22.3458 15.471 22.3534 15.4644C22.3604 15.4578 22.366 15.4527 22.3726 15.4461C22.3797 15.4395 22.3853 15.4343 22.3919 15.4278C22.3989 15.4212 22.4045 15.4151 22.4111 15.4094C22.4182 15.4019 22.4238 15.3958 22.4304 15.3893C22.4374 15.3827 22.4431 15.3766 22.4496 15.37C22.4567 15.3625 22.4623 15.3564 22.4698 15.3498C22.4759 15.3414 22.4816 15.3352 22.4891 15.3287C22.4961 15.3202 22.5018 15.3141 22.5083 15.3057C22.5154 15.2981 22.521 15.2911 22.5276 15.2836C22.5346 15.2756 22.5403 15.2681 22.5468 15.2606C22.5539 15.2517 22.5595 15.2441 22.5661 15.2362C22.5727 15.2272 22.5788 15.2202 22.5854 15.2113C22.5919 15.2023 22.598 15.1939 22.6046 15.185C22.6112 15.1756 22.6173 15.1676 22.6248 15.1582C22.6314 15.1488 22.6365 15.1399 22.6441 15.1305C22.6506 15.1211 22.6558 15.1122 22.6633 15.1018C22.6699 15.092 22.6751 15.0826 22.6826 15.0727C22.6891 15.0629 22.6952 15.0525 22.7018 15.0427C22.7084 15.0319 22.7145 15.0215 22.7211 15.0107C22.7276 15.0004 22.7328 14.9887 22.7403 14.9783C22.7469 14.9671 22.7521 14.9549 22.7596 14.9436C22.7662 14.9323 22.7723 14.9196 22.7788 14.9074C22.7854 14.8947 22.7915 14.8811 22.7981 14.8689C22.8047 14.8553 22.8108 14.8417 22.8173 14.8285C22.8249 14.814 22.83 14.7994 22.8366 14.7849C22.8432 14.7698 22.8493 14.7543 22.8568 14.7374C22.8634 14.721 22.8685 14.705 22.8756 14.6886C22.8826 14.6703 22.8887 14.6524 22.8944 14.6341C22.9019 14.6148 22.908 14.5937 22.9136 14.5731C22.9211 14.551 22.9272 14.528 22.9329 14.5045C22.9404 14.4777 22.9465 14.4519 22.9521 14.4247C22.9606 14.3922 22.9657 14.3575 22.9723 14.3246C22.9808 14.2748 22.9869 14.2237 22.9916 14.1725C22.9972 14.1138 23 14.0551 23 13.9954V4.0061H22.9916Z" fill="#006c81"></path>
        <path d="M20.726 10.647C20.7204 10.624 20.7157 10.6029 20.7068 10.5808C20.7011 10.5662 20.695 10.5507 20.6875 10.5357C20.681 10.524 20.6763 10.5108 20.6683 10.4991C20.6617 10.4892 20.657 10.4789 20.649 10.469C20.6424 10.4596 20.6363 10.4507 20.6298 10.4422C20.6232 10.4347 20.6185 10.4267 20.6105 10.4192C20.6039 10.4117 20.5983 10.4047 20.5913 10.3981C20.5847 10.3915 20.579 10.3854 20.5711 10.3798C20.5645 10.3732 20.5588 10.369 20.5518 10.3624C20.5452 10.3577 20.5396 10.3525 20.5326 10.3479C20.526 10.3432 20.5203 10.3385 20.5133 10.3342C20.5067 10.3305 20.5011 10.3248 20.494 10.322C20.4875 10.3178 20.4818 10.314 20.4748 10.3117C20.4673 10.3075 20.4626 10.3037 20.4555 10.3018C20.448 10.299 20.4433 10.2953 20.4353 10.2924C20.4288 10.2896 20.4231 10.2863 20.4161 10.2835C20.4095 10.2807 20.4039 10.2774 20.3968 10.2755C20.3903 10.2727 20.3846 10.2708 20.3776 10.268C20.371 10.2671 20.3654 10.2643 20.3583 10.2624C20.3517 10.2605 20.3461 10.2596 20.3391 10.2577L20.3306 10.2558C20.3269 10.2549 20.3231 10.2539 20.3198 10.2539C20.3142 10.253 20.3076 10.252 20.3006 10.2511C20.294 10.2502 20.2883 10.2492 20.2813 10.2478C20.2738 10.2478 20.2691 10.2469 20.262 10.2469C20.2555 10.2459 20.2498 10.245 20.2428 10.245C20.2362 10.2441 20.2296 10.2441 20.2235 10.2431C20.216 10.2431 20.2104 10.2431 20.2043 10.2422H20.2005H20.185H20.1658H20.1437H20.1235H20.1043H20.085H20.0657H20.0465H20.0272H20.008H19.9887H19.9695H19.9512H19.931H19.9117H19.8925H19.8732H19.8544H19.8352H19.8159H19.7967H19.7774H19.7581H19.7389H19.7196H19.7004H19.6811H19.6619H19.6417H19.6224H19.6032H19.5849H19.5656H19.5463H19.5271H19.5078H19.4886H19.4693H19.4501H19.4299H19.4111H19.3918H19.3726H19.3533H19.3331H19.3139H19.2946H19.2754H19.2561H19.2369H19.2186H19.1993H19.18H19.1608H19.1415H19.1209H19.1021H19.0828H19.0636H19.0453H19.0354V11.2984H19.0453H19.0655H19.0847H19.104H19.1232H19.1425H19.1617H19.1819H19.2012H19.2204H19.2397H19.2589H19.2782H19.2984H19.3176H19.3369H19.3562H19.3754H19.3947H19.4111H19.4304H19.4496H19.4689H19.4881H19.5074H19.5266H19.5459H19.5661H19.5853H19.6046H19.6238H19.6431H19.6623H19.6816H19.7009H19.7201H19.7398H19.76H19.7793H19.7985H19.8178H19.837H19.8563H19.8756H19.8948H19.9141H19.9333H19.9535H19.9728H19.992H20.0113H20.0301H20.0493H20.0686H20.0878H20.1071H20.1263H20.1465H20.1658H20.185H20.194H20.2043C20.2104 11.2984 20.216 11.297 20.2235 11.297C20.2296 11.296 20.2362 11.296 20.2428 11.2951C20.2498 11.2951 20.2555 11.2941 20.262 11.2941C20.2691 11.2932 20.2738 11.2932 20.2813 11.2923C20.2883 11.2913 20.294 11.2904 20.3006 11.2894C20.3076 11.2885 20.3142 11.2876 20.3198 11.2866C20.324 11.2857 20.3278 11.2847 20.3306 11.2838L20.3391 11.2819C20.3461 11.281 20.3508 11.2791 20.3583 11.2772C20.3654 11.2753 20.371 11.2735 20.3776 11.2716C20.3846 11.2697 20.3903 11.2664 20.3968 11.2645C20.4039 11.2617 20.4095 11.2599 20.4161 11.2566C20.4231 11.2537 20.4288 11.2509 20.4353 11.2481C20.4424 11.2444 20.448 11.2415 20.4555 11.2383C20.4626 11.2345 20.4673 11.2317 20.4748 11.2284C20.4809 11.2246 20.4875 11.2209 20.494 11.2176C20.5011 11.2138 20.5067 11.2091 20.5133 11.2054C20.5203 11.2016 20.526 11.1965 20.5326 11.1922C20.5396 11.1871 20.5452 11.1824 20.5518 11.1777C20.5588 11.172 20.5645 11.1669 20.5711 11.1612C20.5776 11.1547 20.5837 11.1486 20.5913 11.142C20.5983 11.1345 20.6039 11.1284 20.6105 11.1218C20.6176 11.1133 20.6232 11.1063 20.6298 11.0978C20.6363 11.0889 20.6424 11.0805 20.649 11.0706C20.657 11.0607 20.6617 11.0504 20.6683 11.041C20.6763 11.0293 20.681 11.0171 20.6875 11.0053C20.695 10.9898 20.7011 10.9753 20.7068 10.9584C20.7157 10.9372 20.7204 10.9161 20.726 10.8926C20.7359 10.8541 20.7397 10.8128 20.7397 10.7696C20.7397 10.7264 20.735 10.6846 20.726 10.647Z" fill="#006c81"></path>
        <path d="M20.5931 9.05225C20.5884 9.02971 20.5828 9.00763 20.5739 8.98697C20.5673 8.97147 20.5626 8.95692 20.5546 8.94236C20.549 8.93062 20.5424 8.91888 20.5354 8.9076C20.5288 8.89774 20.5231 8.88788 20.5161 8.87849C20.5095 8.87004 20.5039 8.86205 20.4968 8.8536C20.4903 8.84608 20.4846 8.83904 20.4776 8.832C20.471 8.82495 20.4654 8.81885 20.4583 8.81274C20.4518 8.80664 20.4461 8.801 20.4391 8.79537C20.4325 8.78973 20.4269 8.78456 20.4189 8.77987C20.4133 8.77517 20.4067 8.77001 20.3996 8.76578C20.3931 8.76108 20.3874 8.75686 20.3804 8.7531C20.3738 8.74934 20.3682 8.74559 20.3611 8.74183C20.3546 8.73854 20.3489 8.73478 20.3419 8.73197C20.3353 8.72821 20.3297 8.72539 20.3226 8.72257C20.316 8.71976 20.3104 8.71647 20.3034 8.71412C20.2968 8.71177 20.2902 8.70942 20.2841 8.70708C20.2775 8.70473 20.2719 8.70238 20.2649 8.7005C20.2573 8.69862 20.2517 8.69674 20.2447 8.69534C20.2381 8.69346 20.2324 8.69158 20.2254 8.69064C20.2198 8.68876 20.2132 8.68735 20.2066 8.68641L20.2015 8.68547C20.1977 8.685 20.1939 8.68407 20.1874 8.6836C20.1813 8.68313 20.1756 8.68219 20.1681 8.68172C20.1611 8.68078 20.1554 8.68031 20.1489 8.67984C20.1418 8.67937 20.1362 8.6789 20.1296 8.67843C20.1226 8.67796 20.1169 8.67749 20.1103 8.67749H20.0986H20.0911H20.0718H20.0526H20.0324H20.0131H19.9939H19.9746H19.9549H19.9347H19.9155H19.8962H19.8769H19.8577H19.8375H19.8182H19.799H19.7797H19.7605H19.7412H19.721H19.7018H19.6825H19.6633H19.644H19.6248H19.6046H19.5853H19.5661H19.5468H19.5275H19.5083H19.4881H19.4688H19.4496H19.4303H19.4111H19.3937H19.3744H19.3552H19.335H19.3157H19.2974H19.2782H19.258H19.2383H19.219H19.1997H19.1805H19.1612H19.142H19.1218H19.1025H19.0833H19.064H19.0448H19.0349V9.64961H19.0448H19.0452V9.65102H19.0645H19.0838H19.103H19.1223H19.1415H19.1608H19.18H19.1993H19.2185H19.2368H19.2561H19.2754H19.2946H19.3139H19.3331H19.3533H19.3726H19.3918H19.4111H19.4294H19.4486H19.4684H19.4876H19.5078H19.5271H19.5463H19.5656H19.5848H19.6013H19.6215H19.6407H19.66H19.6792H19.6985H19.7177H19.7379H19.7572H19.7764H19.7957H19.8145H19.8337H19.8539H19.8732H19.8924H19.9117H19.931H19.9511H19.9746H19.9939H20.0131H20.0324H20.0526H20.0718H20.0878H20.0911C20.0967 9.65102 20.1033 9.65102 20.1103 9.65102C20.1169 9.65102 20.1226 9.65008 20.1296 9.65008C20.1362 9.64914 20.1418 9.64914 20.1489 9.6482C20.1554 9.6482 20.1611 9.64726 20.1681 9.64632C20.1756 9.64632 20.1813 9.64538 20.1874 9.64444C20.1921 9.6435 20.1977 9.64303 20.2015 9.64256L20.2066 9.64162C20.2132 9.64021 20.2198 9.63928 20.2254 9.63787C20.2324 9.63646 20.2381 9.63505 20.2447 9.63317C20.2517 9.63129 20.2583 9.62941 20.2649 9.62754C20.2719 9.62566 20.2775 9.62331 20.2841 9.62143C20.2912 9.61908 20.2968 9.61626 20.3034 9.61392C20.3104 9.6111 20.316 9.60875 20.3226 9.60593C20.3297 9.60311 20.3353 9.59936 20.3419 9.59654C20.3489 9.59372 20.3546 9.58997 20.3611 9.58668C20.3682 9.58339 20.3738 9.57916 20.3804 9.57541C20.3874 9.57165 20.3931 9.56742 20.3996 9.5632C20.4067 9.55897 20.4133 9.5538 20.4189 9.54911C20.4269 9.54394 20.4325 9.53925 20.4391 9.53361C20.4461 9.52751 20.4518 9.52234 20.4583 9.51623C20.4654 9.51013 20.471 9.50355 20.4776 9.49698C20.4846 9.49041 20.4903 9.48289 20.4968 9.47538C20.5039 9.46739 20.5095 9.45894 20.5161 9.45049C20.5231 9.4411 20.5288 9.43123 20.5354 9.42137C20.5424 9.4101 20.549 9.39836 20.5546 9.38662C20.5626 9.37253 20.5682 9.3575 20.5739 9.34247C20.5828 9.32134 20.5884 9.29927 20.5931 9.27673C20.6002 9.24151 20.6049 9.20347 20.6049 9.16449C20.6049 9.12504 20.602 9.08747 20.5931 9.05225Z" fill="#006c81"></path>
    </g>
    <defs>
        <clipPath id="clip0">
            <rect width="16" height="16" fill="white" transform="translate(7 2)"></rect>
        </clipPath>
    </defs>
</svg>