<svg width="30" height="20" viewBox="0 0 30 20" fill="none" xmlns="http://www.w3.org/2000/svg">
    <rect x="0.7" y="0.7" width="28.6" height="18.6" rx="3.3" fill="white" stroke="white" stroke-width="1.4"></rect>
    <g clip-path="url(#clip0)">
        <path d="M18.7629 3.88721C17.3145 3.88761 15.9943 4.45492 14.9992 5.3867C14.0034 4.45612 12.6839 3.88841 11.2371 3.88841C11.2251 3.88841 11.2127 3.88841 11.2011 3.88841C8.11994 3.90921 5.625 6.49932 5.625 9.68754C5.625 12.8886 8.1393 15.4863 11.2367 15.4863C12.6835 15.4863 14.003 14.9194 14.9985 13.988C14.7905 13.794 14.6024 13.5791 14.4247 13.3543H15.5835C15.4089 13.5755 15.2184 13.7827 15.0136 13.9756H15.0128C15.0081 13.9808 15.0031 13.984 14.9985 13.9884C15.9946 14.9206 17.3157 15.4887 18.7649 15.4883C21.8642 15.4871 24.3758 12.8898 24.375 9.68754C24.375 9.68634 24.375 9.68554 24.375 9.68474C24.3754 6.48252 21.8622 3.88641 18.7629 3.88721ZM14.4889 5.98562H15.5556C15.7128 6.18246 15.8587 6.3897 15.9912 6.60654H14.0882C14.2109 6.3993 14.3457 6.18606 14.4889 5.98562ZM13.7568 7.21546H16.3148C16.4058 7.4163 16.4864 7.62394 16.5568 7.83678H13.4536C13.4846 7.77677 13.593 7.53512 13.7568 7.21546ZM7.9159 11.1646L8.25623 8.9474L7.48846 11.1646H7.0769L7.02347 8.9474L6.65991 11.1646H6.08341L6.56118 8.22406H7.4331L7.46368 10.0284L8.05257 8.22406H8.99844L8.52725 11.1646H7.9159ZM9.95437 11.1598L9.97411 10.925C9.96482 10.9262 9.78285 11.2086 9.36122 11.2086C9.14053 11.2086 8.78433 11.0842 8.78433 10.5433C8.78433 9.85558 9.32715 9.62753 9.84402 9.62753C9.92533 9.62753 10.1007 9.64274 10.1007 9.64274C10.1007 9.64274 10.1205 9.60073 10.1205 9.4871C10.1205 9.30027 9.95785 9.27466 9.73523 9.27466C9.34302 9.27466 9.084 9.38308 9.084 9.38308L9.17073 8.85098C9.17073 8.85098 9.48511 8.71495 9.89435 8.71495C10.1061 8.71495 10.7152 8.73816 10.7152 9.4595L10.4805 11.1598H9.95437ZM12.1779 10.4109C12.1779 11.2314 11.4086 11.1962 11.2742 11.1962C10.7728 11.1962 10.618 11.1246 10.6037 11.1206L10.6834 10.5805C10.6842 10.5757 10.9351 10.6745 11.2142 10.6745C11.3753 10.6745 11.5844 10.6581 11.5844 10.4593C11.5844 10.1616 10.8363 10.2329 10.8363 9.52591C10.8363 8.90219 11.2847 8.71975 11.7268 8.71975C12.0683 8.71975 12.2782 8.76816 12.2782 8.76816L12.2027 9.31307C12.2027 9.31307 11.8786 9.28547 11.7946 9.28547C11.582 9.28547 11.4663 9.33347 11.4663 9.4871C11.4659 9.79597 12.1779 9.64474 12.1779 10.4109ZM13.1017 10.6261C13.1547 10.6261 13.2147 10.6073 13.2558 10.6073L13.1811 11.1318C13.1211 11.149 12.9511 11.2114 12.7331 11.213C12.4547 11.2154 12.2569 11.0546 12.2569 10.6897C12.2569 10.4449 12.5964 8.4273 12.6096 8.41409H13.207L13.1462 8.77497H13.4443L13.3681 9.35628H13.0517L12.8837 10.4273C12.8709 10.5125 12.8938 10.6261 13.1017 10.6261ZM14.4158 8.70695C15.0716 8.70695 15.2679 9.20305 15.2679 9.60993C15.2679 9.77276 15.1889 10.1728 15.1889 10.1728H13.9748C13.9748 10.1728 13.8625 10.6669 14.504 10.6669C14.8049 10.6669 15.1386 10.5149 15.1386 10.5149L15.0333 11.1098C15.0333 11.1098 14.8405 11.2114 14.4022 11.2114C13.9271 11.2114 13.37 11.0038 13.37 10.1316C13.3704 9.37588 13.8149 8.70695 14.4158 8.70695ZM15.9981 12.7569H14.0073C13.8861 12.5569 13.773 12.3517 13.6759 12.136H16.3253C16.2277 12.3505 16.1185 12.5577 15.9981 12.7569ZM15.8646 11.169H15.2513L15.6241 8.77577H16.1805L16.1271 9.12263C16.1271 9.12263 16.3253 8.74536 16.5928 8.74536C16.6706 8.74536 16.7082 8.75336 16.7082 8.75336C16.6288 8.92059 16.5588 9.07382 16.486 9.4695C16.0709 9.31747 16.0392 10.1468 15.8646 11.169ZM18.2011 11.1318C18.2011 11.1318 17.8798 11.2166 17.6785 11.2166C16.9653 11.2166 16.6033 10.7081 16.6033 9.93799C16.6033 8.77657 17.2743 8.15804 17.9638 8.15804C18.2755 8.15804 18.6367 8.30927 18.6367 8.30927L18.5391 8.9634C18.5391 8.9634 18.2948 8.78697 17.9909 8.78697C17.5844 8.78697 17.2197 9.18785 17.2197 9.91639C17.2197 10.2753 17.3896 10.6097 17.814 10.6097C18.0157 10.6097 18.308 10.4581 18.308 10.4581L18.2011 11.1318ZM19.6395 11.161L19.6596 10.9246C19.6499 10.9258 19.468 11.2082 19.0467 11.2082C18.826 11.2082 18.4698 11.0838 18.4698 10.5429C18.4698 9.85518 19.0127 9.62713 19.5291 9.62713C19.6105 9.62713 19.7862 9.64234 19.7862 9.64234C19.7862 9.64234 19.8064 9.60073 19.8064 9.4871C19.8064 9.30027 19.6437 9.27466 19.4207 9.27466C19.0285 9.27466 18.7699 9.38308 18.7699 9.38308L18.8566 8.85098C18.8566 8.85098 19.171 8.71495 19.5806 8.71495C19.792 8.71495 20.4014 8.73816 20.4011 9.4595L20.1664 11.1598C20.166 11.161 19.6395 11.161 19.6395 11.161ZM20.8812 11.169H20.2679L20.6407 8.77577H21.1975L21.144 9.12263C21.144 9.12263 21.3427 8.74536 21.6102 8.74536C21.688 8.74536 21.7252 8.75336 21.7252 8.75336C21.6462 8.92059 21.5754 9.07382 21.503 9.4695C21.0875 9.31747 21.0558 10.1468 20.8812 11.169ZM22.7121 11.1626L22.738 10.9422C22.738 10.9422 22.5398 11.2006 22.1813 11.2006C21.6845 11.2006 21.441 10.7049 21.441 10.1984C21.441 9.41509 21.8971 8.73216 22.4446 8.73216C22.7969 8.73296 23.0218 9.05422 23.0218 9.05422L23.1511 8.22806L23.7501 8.22686L23.2932 11.1626H22.7121ZM23.8937 11.0798C23.8779 11.1094 23.8554 11.1322 23.8268 11.1498C23.7985 11.1662 23.7683 11.1746 23.7366 11.1746C23.7056 11.1746 23.6758 11.1662 23.6471 11.1498C23.6185 11.1322 23.596 11.1094 23.5801 11.0798C23.5639 11.0498 23.5561 11.0194 23.5561 10.987C23.5561 10.9542 23.5643 10.923 23.5801 10.8934C23.596 10.8638 23.6196 10.8398 23.6479 10.8238C23.6773 10.8074 23.7064 10.799 23.7366 10.799C23.7675 10.799 23.7969 10.8074 23.8256 10.8238C23.855 10.8402 23.8775 10.863 23.8937 10.8934C23.9104 10.9234 23.9177 10.9546 23.9177 10.987C23.9177 11.0194 23.91 11.0502 23.8937 11.0798Z" fill="#006c81"></path>
        <path d="M23.8458 12.8494C23.8419 12.8466 23.8385 12.8422 23.8323 12.8398C23.8261 12.8374 23.8164 12.8362 23.8013 12.8362H23.7649V12.8962H23.8036C23.8218 12.8962 23.8338 12.8946 23.8408 12.8878C23.8474 12.8822 23.8505 12.8754 23.8505 12.8658C23.8505 12.8594 23.8489 12.855 23.8458 12.8494Z" fill="#006c81"></path>
        <path d="M23.971 12.8134C23.9543 12.7822 23.9315 12.7602 23.9024 12.7438C23.8734 12.7274 23.844 12.719 23.8138 12.719C23.7828 12.719 23.7534 12.7274 23.7247 12.7438C23.6961 12.7602 23.6724 12.783 23.6566 12.8134C23.6399 12.843 23.6326 12.8742 23.6326 12.9062C23.6326 12.9382 23.6407 12.9698 23.6566 12.999C23.6732 13.0287 23.6957 13.0527 23.7239 13.0691C23.7526 13.0855 23.7828 13.0939 23.8145 13.0939C23.8455 13.0939 23.8757 13.0855 23.904 13.0691C23.9322 13.0527 23.9551 13.0287 23.971 12.999C23.9872 12.9698 23.995 12.9386 23.995 12.9062C23.995 12.8738 23.9868 12.8426 23.971 12.8134ZM23.8595 13.0103L23.8424 12.9786C23.8289 12.9538 23.8176 12.9374 23.8091 12.931C23.8037 12.927 23.7952 12.9238 23.7843 12.9238H23.7661V13.0099H23.7344V12.8078H23.8018C23.825 12.8078 23.8416 12.8098 23.8509 12.8138C23.8614 12.8178 23.8703 12.8234 23.8757 12.8334C23.8819 12.8426 23.8846 12.8526 23.8846 12.863C23.8846 12.8778 23.8792 12.8902 23.8695 12.9018C23.8595 12.9122 23.8455 12.919 23.8289 12.9202C23.8358 12.9226 23.8413 12.9266 23.8455 12.931C23.8536 12.939 23.8629 12.9522 23.8746 12.9706L23.8986 13.0103H23.8595Z" fill="#006c81"></path>
        <path d="M9.89228 10.0864C9.45439 10.0864 9.36572 10.2897 9.36572 10.4589C9.36572 10.5461 9.41412 10.6917 9.59957 10.6917C9.95926 10.6917 10.034 10.2044 10.0224 10.1008C10.0053 10.0972 9.99449 10.0868 9.89228 10.0864Z" fill="#006c81"></path>
        <path d="M14.4181 9.25952C14.0925 9.25952 14.0298 9.6424 14.0298 9.6828H14.693C14.693 9.652 14.7553 9.25952 14.4181 9.25952Z" fill="#006c81"></path>
        <path d="M22.5478 9.32617C22.2849 9.32617 22.077 9.64143 22.0774 10.1203C22.0774 10.4124 22.1781 10.5996 22.3933 10.5996C22.717 10.5996 22.873 10.1631 22.873 9.83787C22.873 9.479 22.7627 9.32617 22.5478 9.32617Z" fill="#006c81"></path>
        <path d="M23.8667 10.9094C23.8531 10.8846 23.8342 10.8654 23.8102 10.8514C23.7861 10.8374 23.7618 10.8306 23.7362 10.8306C23.7114 10.8306 23.6863 10.8378 23.6623 10.8514C23.6382 10.8642 23.6193 10.8842 23.6057 10.9094C23.5922 10.9346 23.5852 10.9614 23.5852 10.9874C23.5852 11.0142 23.5922 11.0406 23.605 11.065C23.6193 11.0898 23.6375 11.1086 23.6615 11.1234C23.6855 11.137 23.7103 11.145 23.7362 11.145C23.7621 11.145 23.7877 11.137 23.8109 11.1234C23.8349 11.1094 23.8535 11.0902 23.8675 11.065C23.881 11.0402 23.8872 11.0142 23.8872 10.9874C23.8872 10.961 23.8802 10.9346 23.8667 10.9094ZM23.7827 11.0902L23.7652 11.059C23.7517 11.0338 23.7408 11.0178 23.7327 11.0118C23.7261 11.0066 23.7184 11.0042 23.7072 11.0042H23.6894V11.0898H23.6568V10.8882H23.7246C23.7474 10.8882 23.7645 10.8902 23.7741 10.8946C23.7838 10.8982 23.7923 10.905 23.7989 10.9138C23.8055 10.9226 23.8078 10.9326 23.8078 10.9434C23.8078 10.9582 23.8024 10.9706 23.7923 10.9818C23.7823 10.9934 23.7683 10.9982 23.7521 11.0002C23.7598 11.0034 23.7649 11.007 23.7687 11.0106C23.7769 11.019 23.7861 11.031 23.7974 11.0502L23.8214 11.0902H23.7827Z" fill="#006c81"></path>
        <path d="M19.5783 10.0864C19.1404 10.0864 19.0518 10.2897 19.0518 10.4589C19.0518 10.5461 19.0998 10.6917 19.2856 10.6917C19.6453 10.6917 19.7196 10.2044 19.7084 10.1008C19.691 10.0972 19.6801 10.0868 19.5783 10.0864Z" fill="#006c81"></path>
        <path d="M23.7694 10.9293C23.7663 10.9253 23.762 10.9221 23.7562 10.9193C23.7496 10.9173 23.7399 10.9153 23.7244 10.9153V10.9157H23.6892V10.9765H23.7275C23.7457 10.9765 23.7577 10.9741 23.7651 10.9681C23.7709 10.9621 23.7744 10.9545 23.7744 10.9457C23.7744 10.9389 23.7728 10.9349 23.7694 10.9293Z" fill="#006c81"></path>
    </g>
    <defs>
        <clipPath id="clip0">
            <rect width="18.75" height="19.375" fill="white" transform="translate(5.625)"></rect>
        </clipPath>
    </defs>
</svg>